<svg width="47" height="30" fill="none" xmlns="http://www.w3.org/2000/svg"><path d="M45.763 0H1.237C.554 0 0 .56 0 1.25v27.5C0 29.44.554 30 1.237 30h44.526c.683 0 1.237-.56 1.237-1.25V1.25C47 .56 46.446 0 45.763 0Z" fill="#0078A9"/><path fill-rule="evenodd" clip-rule="evenodd" d="M14.54 14.624v-.479l-.225.479h-1.94l-.244-.513v.513H8.505l-.428-1.035H7.35l-.454 1.035h-1.88V11.5l1.377-3.181h2.64l.37.9v-.894h3.23l.708 1.518.695-1.525h10.189s.534-.007.887.246l-.003-.245h2.567v.345s.462-.345 1.144-.345h4.53l.398.915v-.915h2.902l.527.915v-.915h2.776v6.31h-2.851l-.67-1.1v1.095h-3.544l-.499-1.128h-.694l-.467 1.128h-2.145s-.799-.011-1.398-.449v.449h-4.271V13.15c0-.214-.161-.2-.161-.2h-.156v1.675h-8.559l.001-.001Zm-2.132 1.366h5.61l.81.935.83-.935h4.312s.405.01.79.219v-.219H28.6c.487 0 .897.249.897.249v-.25h4.936v.23s.352-.229.825-.229h3.216v.229s.405-.229.833-.229h2.526v5.946s-.332.383-1.018.383h-3.33v-.188s-.316.188-.8.188h-8.843V20.78c0-.15-.066-.177-.198-.177h-.121v1.715h-2.765v-1.705s-.306.168-.819.168h-.993v1.538H19.54l-.774-.965-.83.964h-5.528V15.99Z" fill="#fff"/><path fill-rule="evenodd" clip-rule="evenodd" d="M30.09 16.939h3.52v.962H31.17v.84h2.375v.849h-2.375v.884h2.442v.939h-3.52v-4.474Zm10.322 1.744c1.323.068 1.434.742 1.434 1.462 0 .838-.676 1.288-1.38 1.288h-2.263v-.96h1.763c.298 0 .744 0 .744-.43 0-.203-.078-.333-.396-.368-.142-.02-.665-.05-.745-.051-1.194-.033-1.474-.639-1.474-1.378 0-.837.579-1.297 1.284-1.297h2.26v.958h-1.654c-.376.004-.783-.044-.783.39 0 .274.202.33.455.354.09 0 .677.032.755.032Zm-4.055 0c1.324.068 1.435.742 1.435 1.462 0 .838-.675 1.288-1.38 1.288H34.15v-.96h1.762c.298 0 .745 0 .745-.43 0-.203-.08-.333-.397-.368-.143-.02-.666-.05-.744-.051-1.197-.033-1.473-.639-1.473-1.378 0-.837.577-1.297 1.282-1.297h2.26v.958h-1.653c-.377.004-.783-.044-.783.39 0 .274.2.33.455.354.088 0 .675.032.753.032Zm-13.13.3h-1.342v-1.074h1.346c.451 0 .593.295.593.514 0 .3-.157.56-.597.56Zm-2.428 2.01-1.547-1.868 1.546-1.747v3.614h.001Zm-4.116-.52h-2.484v-.883h2.375v-.849h-2.375v-.84l2.62.006 1.047 1.218-1.183 1.349Zm6.906-3.524h-3.78l-1.233 1.387-1.194-1.397h-4.244v4.475h4.106l1.293-1.479 1.263 1.488h2.065v-1.52h1.45c.558 0 1.577-.018 1.577-1.587 0-1.118-.773-1.367-1.303-1.367Zm4.273 1.973H26.52V17.91h1.345c.45 0 .593.295.593.514 0 .3-.157.5-.598.5Zm.93.463c.587-.299.743-.699.743-1.238 0-.958-.763-1.198-1.293-1.198h-2.799v4.475h1.076v-1.579h1.41c.373 0 .52.379.53.759l.028.82h1.048l-.038-.92c0-.719-.196-1.059-.705-1.119Zm-2.917-5.691h1.076V9.215h-1.076v4.479ZM17.06 9.22h3.52v.962h-2.443v.84h2.374v.85h-2.374v.883h2.443v.939h-3.52V9.22Zm6.577 1.974h-1.342V10.18h1.347c.45 0 .593.294.593.513 0 .3-.157.5-.598.5Zm.93.462c.588-.299.744-.7.744-1.237 0-.96-.763-1.2-1.291-1.2h-2.802v4.475h1.077v-1.578h1.41c.373 0 .52.379.53.759l.028.819h1.048l-.037-.919c0-.719-.198-1.059-.706-1.119ZM6.99 11.73l.641-1.564.668 1.563h-1.31v.001Zm7.586-2.51-1.32 3-1.318-3H10.25v4.309L8.369 9.22H6.944l-1.92 4.475H6.16l.42-1h2.15l.427 1h2.168v-3.324l1.44 3.322h.978l1.473-3.267v3.267h1.077V9.22h-1.718Zm16.875 2.512.642-1.563.675 1.562h-1.318v.002Zm6.614-2.514v3.098l-1.816-3.098h-1.591v4.202l-1.835-4.2h-1.426l-1.483 3.466s-.627 0-.69-.016c-.26-.055-.664-.241-.67-1.03v-.325c0-1.049.559-1.125 1.274-1.125h.665v-.972h-1.406c-.49 0-1.555.38-1.59 2.218-.025 1.239.504 2.26 1.698 2.26h1.42l.42-.998h2.15l.425 1h2.125v-3.28l1.938 3.277h1.47V9.218h-1.078Z" fill="#0078A9"/></svg>