<svg width="48" height="30" fill="none" xmlns="http://www.w3.org/2000/svg"><path d="M46.737 0H1.263C.566 0 0 .56 0 1.25v27.5C0 29.44.566 30 1.263 30h45.474c.697 0 1.263-.56 1.263-1.25V1.25C48 .56 47.434 0 46.737 0Z" fill="#F2F2F2"/><path fill-rule="evenodd" clip-rule="evenodd" d="M11.975 15.185c-.275.25-.63.356-1.196.356h-.235v-2.957h.235c.566 0 .907.1 1.197.362.302.268.481.683.481 1.113 0 .43-.179.86-.48 1.126h-.002Zm-1.02-3.359H9.67V16.3h1.277c.677 0 1.168-.16 1.598-.515.51-.425.812-1.062.812-1.719 0-1.321-.988-2.239-2.404-2.239ZM13.76 16.3h.872v-4.475h-.872V16.3Zm3.009-2.759c-.524-.194-.678-.321-.678-.562 0-.281.275-.496.651-.496.262 0 .477.107.705.362l.457-.596a1.96 1.96 0 0 0-1.317-.498c-.792 0-1.397.55-1.397 1.282 0 .617.283.932 1.101 1.227.344.12.518.2.605.255a.541.541 0 0 1 .262.462c0 .363-.288.63-.678.63-.417 0-.752-.206-.954-.596l-.562.544c.4.59.884.852 1.55.852.907 0 1.544-.604 1.544-1.47 0-.71-.295-1.032-1.29-1.396Zm1.564.524c0 1.315 1.035 2.335 2.364 2.335.377 0 .699-.075 1.095-.262v-1.026c-.35.35-.659.488-1.054.488-.88 0-1.505-.637-1.505-1.543 0-.857.644-1.534 1.465-1.534.415 0 .732.147 1.094.502V12a2.228 2.228 0 0 0-1.073-.275 2.389 2.389 0 0 0-1.686.678 2.338 2.338 0 0 0-.7 1.662Zm10.537.765-1.195-3.005h-.955l1.902 4.588h.47l1.934-4.588h-.946l-1.21 3.005Zm2.554 1.47h2.476v-.759h-1.604v-1.207h1.543v-.758h-1.543v-.992H33.9v-.759h-2.476V16.3Zm4.182-2.415h-.255v-1.356h.27c.544 0 .84.23.84.665 0 .448-.296.691-.855.691Zm1.752-.739c0-.837-.577-1.32-1.584-1.32h-1.297V16.3h.874V14.5h.114l1.21 1.798h1.074l-1.411-1.884c.66-.135 1.02-.584 1.02-1.269Z" fill="#001722"/><path fill-rule="evenodd" clip-rule="evenodd" d="M37.81 12.21h-.016v-.1h.016c.048 0 .07.015.07.049s-.023.05-.07.05v.001Zm.164-.053c0-.077-.053-.12-.147-.12H37.7v.388h.094v-.15l.108.15h.118l-.132-.16a.106.106 0 0 0 .086-.107Z" fill="#231F20"/><path fill-rule="evenodd" clip-rule="evenodd" d="M37.844 12.516a.278.278 0 0 1-.275-.281.273.273 0 0 1 .169-.26.28.28 0 0 1 .108-.022c.149 0 .271.127.271.282a.27.27 0 0 1-.077.196.279.279 0 0 1-.194.085h-.002Zm.002-.626a.348.348 0 0 0-.319.214.343.343 0 1 0 .56-.11.347.347 0 0 0-.241-.104Z" fill="#231F20"/><mask id="mask0" style="mask-type:alpha" maskUnits="userSpaceOnUse" x="22" y="11" width="5" height="6"><path d="M22.125 14.041c0 1.35 1.023 2.358 2.389 2.358 1.33 0 2.38-1.022 2.38-2.333 0-1.302-1.044-2.325-2.38-2.325-1.32 0-2.389 1.03-2.389 2.3Z" fill="#fff"/></mask><g mask="url('#mask0')" fill-rule="evenodd" clip-rule="evenodd"><path d="M22.125 16.399h4.77V11.74h-4.77V16.4Z" fill="#F48120"/><path d="M26.868 14.07a2.357 2.357 0 0 1-4.03 1.662 2.343 2.343 0 0 1-.687-1.662c0-1.3 1.056-2.355 2.359-2.355a2.357 2.357 0 0 1 2.358 2.355Z" fill="#F48120"/><path d="M26.855 14.07a2.311 2.311 0 0 1-.682 1.653 2.357 2.357 0 0 1-2.564.509 2.357 2.357 0 0 1-1.27-1.268 2.344 2.344 0 0 1 2.17-3.236 2.345 2.345 0 0 1 2.346 2.342Z" fill="#F48221"/><path d="M26.843 14.07a2.332 2.332 0 0 1-3.988 1.644 2.318 2.318 0 0 1-.68-1.644 2.331 2.331 0 0 1 2.335-2.33 2.332 2.332 0 0 1 2.333 2.33Z" fill="#F48323"/><path d="M26.832 14.07a2.287 2.287 0 0 1-.675 1.636 2.335 2.335 0 0 1-1.647.684 2.353 2.353 0 0 1-1.646-.684 2.308 2.308 0 0 1-.675-1.636 2.32 2.32 0 0 1 2.321-2.319 2.32 2.32 0 0 1 2.322 2.319Z" fill="#F48324"/><path d="M26.818 14.07a2.308 2.308 0 0 1-3.946 1.627 2.293 2.293 0 0 1-.672-1.627 2.307 2.307 0 0 1 2.31-2.306 2.307 2.307 0 0 1 2.308 2.306Z" fill="#F48425"/><path d="M26.806 14.07a2.263 2.263 0 0 1-.668 1.618 2.312 2.312 0 0 1-1.628.677 2.328 2.328 0 0 1-1.63-.676 2.282 2.282 0 0 1-.668-1.619 2.296 2.296 0 0 1 2.298-2.294 2.295 2.295 0 0 1 2.296 2.294Z" fill="#F48527"/><path d="M26.794 14.07a2.284 2.284 0 0 1-3.904 1.608 2.283 2.283 0 0 1 1.621-3.89 2.283 2.283 0 0 1 2.285 2.282" fill="#F48628"/><path d="M26.782 14.07a2.24 2.24 0 0 1-.66 1.601 2.285 2.285 0 0 1-1.612.67 2.27 2.27 0 1 1 0-4.54 2.272 2.272 0 0 1 2.274 2.269" fill="#F58629"/><path d="M26.77 14.07a2.26 2.26 0 0 1-4.521 0 2.26 2.26 0 0 1 2.261-2.258 2.26 2.26 0 0 1 2.261 2.258" fill="#F5872B"/><path d="M26.759 14.07a2.247 2.247 0 0 1-2.249 2.246 2.247 2.247 0 1 1 0-4.491 2.247 2.247 0 0 1 2.249 2.245Z" fill="#F5882C"/><path d="M26.746 14.07a2.235 2.235 0 0 1-4.472 0c0-1.232 1-2.232 2.236-2.232 1.234 0 2.236 1 2.236 2.232Z" fill="#F5892E"/><path d="M26.733 14.07a2.222 2.222 0 0 1-2.223 2.221 2.222 2.222 0 1 1 0-4.441c1.228 0 2.223.994 2.223 2.22Z" fill="#F5892F"/><path d="M26.721 14.07a2.211 2.211 0 0 1-3.78 1.559 2.196 2.196 0 0 1-.643-1.559 2.211 2.211 0 0 1 4.422 0" fill="#F58A30"/><path d="M26.709 14.07a2.199 2.199 0 0 1-3.759 1.55 2.198 2.198 0 0 1 3.118-3.098c.413.411.643.968.64 1.548Z" fill="#F58B32"/><path d="M26.697 14.07a2.163 2.163 0 0 1-.636 1.54 2.21 2.21 0 0 1-1.55.645 2.218 2.218 0 0 1-1.552-.644 2.172 2.172 0 0 1-.637-1.541 2.163 2.163 0 0 1 .637-1.54 2.21 2.21 0 0 1 1.551-.644 2.21 2.21 0 0 1 1.55.644c.41.41.639.964.637 1.54Z" fill="#F58C33"/><path d="M26.685 14.07a2.174 2.174 0 0 1-3.717 1.532 2.158 2.158 0 0 1-.633-1.532c0-1.2.973-2.171 2.175-2.171 1.2 0 2.175.972 2.175 2.171Z" fill="#F58C34"/><path d="M26.673 14.07a2.13 2.13 0 0 1-.629 1.524 2.175 2.175 0 0 1-2.365.47 2.176 2.176 0 0 1-1.17-1.17 2.13 2.13 0 0 1-.161-.824 2.13 2.13 0 0 1 .629-1.523 2.175 2.175 0 0 1 2.364-.47 2.174 2.174 0 0 1 1.17 1.17c.108.26.163.54.162.823Z" fill="#F58D35"/><path d="M26.66 14.07a2.119 2.119 0 0 1-.626 1.515 2.16 2.16 0 0 1-3.05 0 2.138 2.138 0 0 1-.626-1.515 2.15 2.15 0 0 1 2.152-2.148 2.15 2.15 0 0 1 2.15 2.148Z" fill="#F58E37"/><path d="M26.648 14.07a2.105 2.105 0 0 1-.622 1.507 2.148 2.148 0 0 1-3.033 0 2.124 2.124 0 0 1-.462-2.321 2.124 2.124 0 0 1 1.157-1.156c.26-.108.54-.164.822-.165a2.164 2.164 0 0 1 1.516.63 2.124 2.124 0 0 1 .622 1.505Z" fill="#F58F38"/><path d="M26.637 14.07a2.092 2.092 0 0 1-.618 1.5 2.136 2.136 0 0 1-1.51.625 2.125 2.125 0 1 1 2.127-2.125" fill="#F58F39"/><path d="M26.625 14.07a2.114 2.114 0 0 1-3.615 1.49 2.097 2.097 0 0 1-.615-1.49 2.114 2.114 0 0 1 4.228.001" fill="#F6903B"/><path d="M26.612 14.07a2.1 2.1 0 0 1-2.102 2.1 2.1 2.1 0 1 1 0-4.199 2.1 2.1 0 0 1 2.102 2.1" fill="#F6913C"/><path d="M26.6 14.07a2.087 2.087 0 0 1-3.571 1.472 2.074 2.074 0 0 1-.608-1.472 2.088 2.088 0 0 1 4.178 0Z" fill="#F6923D"/><path d="M26.586 14.07a2.076 2.076 0 0 1-3.55 1.463 2.064 2.064 0 0 1-.604-1.463 2.077 2.077 0 0 1 4.154 0Z" fill="#F6923F"/><path d="M26.574 14.07a2.062 2.062 0 0 1-2.858 1.903 2.075 2.075 0 0 1-1.118-1.116 2.065 2.065 0 1 1 3.976-.787Z" fill="#F69340"/><path d="M26.563 14.07a2.051 2.051 0 0 1-3.509 1.446 2.03 2.03 0 0 1-.598-1.445 2.052 2.052 0 0 1 4.105 0" fill="#F69441"/><path d="M26.55 14.07a2.038 2.038 0 0 1-2.04 2.038 2.038 2.038 0 0 1-2.041-2.037 2.04 2.04 0 0 1 4.081 0" fill="#F69543"/><path d="M26.539 14.07a2.028 2.028 0 0 1-3.467 1.43 2.007 2.007 0 0 1-.59-1.429 2.029 2.029 0 0 1 4.057-.002" fill="#F69544"/><path d="M26.526 14.07a2.015 2.015 0 0 1-3.445 1.42 2.015 2.015 0 1 1 3.445-1.42Z" fill="#F69645"/><path d="M26.513 14.07a2.003 2.003 0 0 1-3.425 1.412 1.993 1.993 0 0 1-.583-1.412c0-1.105.897-2 2.005-2 1.106 0 2.003.895 2.003 2Z" fill="#F69746"/><path d="M26.502 14.07a1.992 1.992 0 0 1-3.984 0 1.99 1.99 0 0 1 1.992-1.989 1.99 1.99 0 0 1 1.992 1.989Z" fill="#F69848"/><path d="M26.489 14.07a1.979 1.979 0 0 1-3.383 1.394 1.977 1.977 0 0 1 1.403-3.37c1.093 0 1.98.885 1.98 1.976Z" fill="#F69849"/><path d="M26.477 14.07c0 1.086-.88 1.965-1.967 1.965a1.966 1.966 0 0 1-1.968-1.965c0-1.085.882-1.964 1.968-1.964 1.086 0 1.967.879 1.967 1.964Z" fill="#F6994A"/><path d="M26.465 14.07a1.955 1.955 0 0 1-3.91 0 1.954 1.954 0 0 1 3.91 0Z" fill="#F69A4C"/><path d="M26.453 14.07a1.942 1.942 0 0 1-3.886 0c0-1.071.87-1.94 1.943-1.94 1.074 0 1.943.869 1.943 1.94Z" fill="#F79A4D"/><path d="M26.44 14.07a1.929 1.929 0 0 1-1.93 1.929 1.93 1.93 0 0 1-1.932-1.929 1.93 1.93 0 0 1 1.931-1.928c1.067 0 1.93.863 1.93 1.928Z" fill="#F79B4E"/><path d="M26.429 14.07a1.917 1.917 0 0 1-3.279 1.35 1.917 1.917 0 0 1 1.361-3.266c1.06.001 1.92.858 1.92 1.916" fill="#F79C4F"/><path d="M26.416 14.07a1.906 1.906 0 0 1-3.813 0 1.905 1.905 0 0 1 3.813 0Z" fill="#F79D51"/><path d="M26.403 14.07a1.893 1.893 0 0 1-3.788 0c0-1.045.85-1.891 1.895-1.891 1.046 0 1.895.846 1.895 1.891" fill="#F79D52"/><path d="M26.392 14.07a1.881 1.881 0 0 1-3.764 0 1.88 1.88 0 0 1 1.882-1.879 1.88 1.88 0 0 1 1.882 1.879Z" fill="#F79E53"/><path d="M26.38 14.07a1.869 1.869 0 0 1-3.74 0c0-1.031.838-1.866 1.87-1.866s1.87.835 1.87 1.866Z" fill="#F79F54"/><path d="M26.367 14.07a1.857 1.857 0 1 1-3.713 0 1.857 1.857 0 0 1 3.713 0Z" fill="#F79F56"/><path d="M26.356 14.07a1.844 1.844 0 1 1-3.686 0 1.844 1.844 0 0 1 3.684 0" fill="#F7A057"/><path d="M26.343 14.07a1.832 1.832 0 0 1-3.133 1.291 1.821 1.821 0 0 1-.533-1.291 1.832 1.832 0 0 1 3.666 0Z" fill="#F7A158"/><path d="M26.33 14.07a1.82 1.82 0 0 1-3.112 1.283 1.808 1.808 0 0 1-.53-1.283 1.82 1.82 0 0 1 1.822-1.818c1.005 0 1.82.813 1.82 1.818Z" fill="#F7A259"/><path d="M26.319 14.07a1.808 1.808 0 1 1-3.616 0 1.808 1.808 0 0 1 3.616 0Z" fill="#F7A25B"/><path d="M26.306 14.07a1.796 1.796 0 0 1-3.592 0 1.796 1.796 0 0 1 3.592 0Z" fill="#F7A35C"/><path d="M26.293 14.07c.002.47-.185.922-.52 1.256a1.784 1.784 0 0 1-3.05-1.256c.002-.984.801-1.781 1.787-1.781.985 0 1.783.797 1.783 1.781Z" fill="#F8A45D"/><path d="M26.282 14.07c.002.467-.184.916-.516 1.248a1.79 1.79 0 0 1-1.256.522 1.79 1.79 0 0 1-1.257-.522 1.753 1.753 0 0 1-.516-1.248 1.753 1.753 0 0 1 .517-1.247 1.79 1.79 0 0 1 1.256-.522c.471.003.923.19 1.255.522.333.331.518.78.517 1.247Z" fill="#F8A45E"/><path d="M26.27 14.07a1.736 1.736 0 0 1-.512 1.24 1.768 1.768 0 0 1-1.924.382 1.768 1.768 0 0 1-.953-.952 1.736 1.736 0 0 1-.131-.67 1.74 1.74 0 0 1 .513-1.238c.33-.33.778-.516 1.247-.518.468.002.917.188 1.247.518.33.33.514.775.512 1.24" fill="#F8A560"/><path d="M26.258 14.07a1.724 1.724 0 0 1-.508 1.232 1.756 1.756 0 0 1-2.48 0 1.737 1.737 0 0 1-.508-1.232 1.748 1.748 0 0 1 3.495 0" fill="#F8A661"/><path d="M26.246 14.07a1.708 1.708 0 0 1-.505 1.223 1.744 1.744 0 0 1-2.462 0 1.722 1.722 0 0 1-.505-1.223c-.001-.457.18-.896.506-1.221a1.752 1.752 0 0 1 1.23-.51c.959 0 1.736.775 1.736 1.732" fill="#F8A662"/><path d="M26.233 14.07a1.722 1.722 0 0 1-2.945 1.214 1.713 1.713 0 0 1-.5-1.214 1.72 1.72 0 0 1 2.384-1.587 1.73 1.73 0 0 1 .932.931c.086.208.13.431.129.656Z" fill="#F8A763"/><path d="M26.22 14.07a1.71 1.71 0 0 1-2.925 1.207 1.699 1.699 0 0 1-.498-1.207 1.684 1.684 0 0 1 .498-1.206 1.72 1.72 0 0 1 1.215-.503c.945 0 1.71.766 1.71 1.709Z" fill="#F8A864"/><path d="M26.207 14.07a1.697 1.697 0 0 1-2.35 1.566 1.707 1.707 0 0 1-.92-.918 1.697 1.697 0 0 1 1.572-2.344c.938 0 1.698.76 1.698 1.696Z" fill="#F8A966"/><path d="M26.196 14.07a1.685 1.685 0 0 1-2.883 1.189 1.675 1.675 0 0 1-.49-1.189c0-.93.755-1.684 1.686-1.684.93 0 1.686.753 1.686 1.684" fill="#F8A967"/><path d="M26.183 14.07a1.674 1.674 0 0 1-3.348 0 1.674 1.674 0 0 1 3.348 0Z" fill="#F8AA68"/><path d="M26.172 14.07a1.662 1.662 0 0 1-3.324 0 1.662 1.662 0 0 1 3.324 0Z" fill="#F8AB69"/><path d="M26.16 14.07a1.649 1.649 0 1 1-3.298 0 1.649 1.649 0 0 1 3.298 0Z" fill="#F8AB6B"/><path d="M26.146 14.07a1.636 1.636 0 0 1-2.798 1.154 1.627 1.627 0 0 1-.477-1.154 1.637 1.637 0 0 1 3.276 0Z" fill="#F8AC6C"/><path d="M26.135 14.07a1.625 1.625 0 0 1-3.251 0 1.625 1.625 0 0 1 3.251 0Z" fill="#F8AD6D"/><path d="M26.123 14.07a1.613 1.613 0 0 1-3.227 0 1.613 1.613 0 0 1 3.227.001" fill="#F8AD6E"/><path d="M26.11 14.07a1.6 1.6 0 1 1-3.2-.002 1.6 1.6 0 0 1 3.2.003" fill="#F9AE6F"/><path d="M26.099 14.07a1.588 1.588 0 0 1-2.716 1.12 1.58 1.58 0 0 1-.462-1.12 1.59 1.59 0 0 1 3.178 0Z" fill="#F9AF70"/><path d="M26.086 14.07a1.576 1.576 0 1 1-3.151-.002 1.576 1.576 0 0 1 3.151.002Z" fill="#F9AF72"/><path d="M26.074 14.07a1.564 1.564 0 0 1-3.129 0 1.564 1.564 0 0 1 3.13 0Z" fill="#F9B073"/><path d="M26.062 14.07a1.55 1.55 0 0 1-2.15 1.43 1.558 1.558 0 0 1-.84-.84 1.551 1.551 0 0 1 1.437-2.14 1.55 1.55 0 0 1 1.553 1.55Z" fill="#F9B174"/><path d="M26.05 14.07c0 .85-.69 1.537-1.542 1.537a1.538 1.538 0 1 1 .002-3.074c.85 0 1.54.687 1.54 1.537Z" fill="#F9B175"/><path d="M26.037 14.07c0 .844-.683 1.526-1.528 1.526a1.527 1.527 0 1 1 0-3.051c.845 0 1.53.682 1.53 1.525" fill="#F9B276"/><path d="M26.026 14.07c0 .838-.679 1.514-1.516 1.514a1.514 1.514 0 1 1 0-3.028c.837 0 1.516.679 1.516 1.514Z" fill="#F9B377"/><path d="M26.013 14.07a1.503 1.503 0 0 1-3.006 0c0-.829.673-1.5 1.503-1.5.83 0 1.503.671 1.503 1.5Z" fill="#F9B379"/><path d="M26 14.07a1.49 1.49 0 1 1-2.98 0 1.49 1.49 0 0 1 2.98 0Z" fill="#F9B47A"/><path d="M25.989 14.07c0 .816-.662 1.477-1.48 1.477a1.478 1.478 0 1 1 1.48-1.477Z" fill="#F9B57B"/><path d="M25.976 14.07a1.465 1.465 0 0 1-2.506 1.033 1.465 1.465 0 0 1 1.038-2.497c.811 0 1.468.655 1.468 1.464Z" fill="#F9B57C"/><path d="M25.964 14.07a1.454 1.454 0 1 1-2.908 0 1.454 1.454 0 0 1 2.908 0Z" fill="#F9B67D"/><path d="M25.952 14.07a1.441 1.441 0 1 1-2.882 0 1.441 1.441 0 0 1 2.882 0Z" fill="#F9B77E"/><path d="M25.94 14.07a1.429 1.429 0 0 1-2.444 1.008 1.42 1.42 0 0 1-.416-1.008 1.43 1.43 0 0 1 2.86 0Z" fill="#F9B780"/><path d="M25.927 14.07a1.417 1.417 0 0 1-2.836 0 1.417 1.417 0 0 1 2.836 0Z" fill="#FAB881"/><path d="M25.916 14.07a1.407 1.407 0 0 1-2.811 0 1.406 1.406 0 0 1 2.812 0Z" fill="#FAB982"/><path d="M25.903 14.07a1.393 1.393 0 0 1-2.787 0 1.393 1.393 0 0 1 2.787 0Z" fill="#FAB983"/><path d="M25.892 14.07a1.38 1.38 0 0 1-2.362.973 1.374 1.374 0 0 1-.402-.973 1.38 1.38 0 0 1 2.762 0" fill="#FABA84"/><path d="M25.88 14.07a1.37 1.37 0 0 1-2.74 0c0-.36.143-.707.4-.963s.605-.401.97-.403c.755 0 1.37.612 1.37 1.366Z" fill="#FABA85"/><path d="M25.867 14.07c.001.358-.14.702-.395.956-.254.254-.6.398-.962.4a1.372 1.372 0 0 1-.962-.4 1.356 1.356 0 1 1 1.924-1.911c.254.254.396.597.395.955Z" fill="#FABB86"/><path d="M25.854 14.07a1.33 1.33 0 0 1-.391.947 1.359 1.359 0 0 1-.953.397 1.365 1.365 0 0 1-.955-.396 1.337 1.337 0 0 1 0-1.895c.252-.252.595-.394.953-.396.359.002.701.144.954.396.252.252.393.593.392.947Z" fill="#FABC87"/><path d="M25.841 14.07c.002.351-.137.688-.387.938s-.588.391-.943.393a1.351 1.351 0 0 1-.947-.391 1.325 1.325 0 0 1 0-1.878c.25-.25.59-.39.944-.392.355.002.695.143.945.392.25.25.39.587.388.938Z" fill="#FABC89"/><path d="M25.829 14.07c.001.348-.137.682-.384.929a1.334 1.334 0 0 1-.934.39 1.338 1.338 0 0 1-.938-.388 1.31 1.31 0 0 1 0-1.86c.247-.247.584-.387.936-.389.351.002.688.142.935.389.248.247.386.581.385.929Z" fill="#FABD8A"/><path d="M25.817 14.07a1.288 1.288 0 0 1-.38.922 1.314 1.314 0 0 1-1.856 0 1.3 1.3 0 0 1 0-1.844 1.315 1.315 0 0 1 .929-.384c.348.002.681.14.926.385s.382.577.38.921" fill="#FABE8B"/><path d="M25.806 14.07a1.276 1.276 0 0 1-.377.913 1.301 1.301 0 0 1-2.119-.42 1.296 1.296 0 1 1 2.496-.494Z" fill="#FABE8C"/><path d="M25.793 14.07a1.263 1.263 0 0 1-.373.905 1.29 1.29 0 0 1-2.098-.416 1.263 1.263 0 0 1-.095-.489 1.264 1.264 0 0 1 .373-.904 1.29 1.29 0 0 1 .91-.377c.709 0 1.283.574 1.283 1.281Z" fill="#FABF8D"/><path d="M25.78 14.07a1.27 1.27 0 1 1-2.54 0 1.27 1.27 0 0 1 2.54 0Z" fill="#FABF8E"/><path d="M25.769 14.07a1.26 1.26 0 0 1-2.519 0 1.259 1.259 0 0 1 2.519 0Z" fill="#FAC08F"/><path d="M25.757 14.07a1.247 1.247 0 0 1-2.493 0 1.246 1.246 0 0 1 2.493 0Z" fill="#FAC190"/><path d="M25.744 14.07a1.216 1.216 0 0 1-.36.87 1.242 1.242 0 0 1-1.349.268 1.242 1.242 0 0 1-.668-.668 1.233 1.233 0 1 1 2.376-.47Z" fill="#FAC191"/><path d="M25.733 14.07a1.222 1.222 0 0 1-2.446 0c0-.674.547-1.22 1.223-1.22.674 0 1.223.546 1.223 1.22Z" fill="#FBC292"/><path d="M25.72 14.07a1.193 1.193 0 0 1-.352.853 1.217 1.217 0 0 1-1.323.263 1.217 1.217 0 0 1-.655-.655 1.21 1.21 0 1 1 2.33-.461Z" fill="#FBC393"/><path d="M25.707 14.07a1.182 1.182 0 0 1-.348.844 1.206 1.206 0 0 1-1.31.26 1.206 1.206 0 0 1-.647-.648 1.197 1.197 0 1 1 2.306-.456Z" fill="#FBC395"/><path d="M25.696 14.07a1.185 1.185 0 0 1-2.027.835 1.18 1.18 0 0 1-.345-.835 1.185 1.185 0 0 1 2.372 0Z" fill="#FBC496"/><path d="M25.683 14.07a1.157 1.157 0 0 1-.342.827 1.18 1.18 0 0 1-1.664 0 1.166 1.166 0 0 1-.341-.827 1.173 1.173 0 0 1 2.347 0Z" fill="#FBC497"/><path d="M25.67 14.07a1.143 1.143 0 0 1-.338.819 1.167 1.167 0 0 1-1.646 0 1.16 1.16 0 1 1 1.986-.818" fill="#FBC598"/><path d="M25.66 14.07a1.131 1.131 0 0 1-.335.81 1.155 1.155 0 0 1-1.63 0 1.14 1.14 0 0 1-.335-.81 1.149 1.149 0 0 1 2.299 0Z" fill="#FBC699"/><path d="M25.647 14.07a1.118 1.118 0 0 1-.33.801 1.143 1.143 0 0 1-1.614 0 1.128 1.128 0 0 1-.33-.801 1.136 1.136 0 0 1 2.274 0Z" fill="#FBC69A"/><path d="M25.634 14.07a1.11 1.11 0 0 1-.326.793 1.13 1.13 0 0 1-1.596 0 1.117 1.117 0 0 1-.326-.793 1.124 1.124 0 0 1 2.248 0Z" fill="#FBC79B"/><path d="M25.623 14.07a1.114 1.114 0 0 1-2.142.424 1.111 1.111 0 1 1 2.14-.423" fill="#FBC79C"/><path d="M25.61 14.07a1.1 1.1 0 1 1-1.102-1.099 1.1 1.1 0 0 1 1.102 1.1" fill="#FBC89D"/><path d="M25.597 14.07a1.088 1.088 0 1 1-2.177-.002 1.088 1.088 0 0 1 2.177.002Z" fill="#FBC99E"/><path d="M25.586 14.07a1.076 1.076 0 1 1-2.152-.002 1.076 1.076 0 0 1 2.152.002Z" fill="#FBC99F"/><path d="M25.573 14.07a1.063 1.063 0 0 1-1.817.75 1.057 1.057 0 0 1-.31-.75 1.063 1.063 0 0 1 2.127 0Z" fill="#FBCAA0"/><path d="M25.56 14.07a1.05 1.05 0 1 1-2.1-.002 1.05 1.05 0 0 1 2.1.002Z" fill="#FBCAA1"/><path d="M25.55 14.07a1.038 1.038 0 0 1-1.777.732 1.039 1.039 0 1 1 1.776-.732Z" fill="#FBCBA2"/><path d="M25.537 14.07a1.026 1.026 0 1 1-2.052 0 1.026 1.026 0 0 1 2.052 0Z" fill="#FCCBA3"/><path d="M25.525 14.07a1.015 1.015 0 1 1-2.027-.002 1.015 1.015 0 0 1 2.026.002" fill="#FCCCA4"/><path d="M25.513 14.07a.989.989 0 0 1-.292.707 1.01 1.01 0 0 1-1.423 0 .996.996 0 0 1-.291-.707 1 1 0 0 1 1.003-1c.553 0 1.003.447 1.003 1Z" fill="#FCCDA5"/><path d="M25.5 14.07a.975.975 0 0 1-.288.698.996.996 0 0 1-1.404 0 .983.983 0 0 1-.288-.698.99.99 0 0 1 1.98 0Z" fill="#FCCDA6"/><path d="M25.488 14.07a.963.963 0 0 1-.285.69.983.983 0 0 1-1.386 0 .973.973 0 0 1-.285-.69c0-.539.437-.975.978-.975.54 0 .978.436.978.975Z" fill="#FCCEA7"/><path d="M25.475 14.07a.95.95 0 0 1-.28.68.97.97 0 0 1-1.579-.312.964.964 0 0 1 .894-1.332c.533 0 .967.431.967.964" fill="#FCCEA8"/><path d="M25.462 14.07a.952.952 0 0 1-1.629.672.953.953 0 0 1 .676-1.623c.527 0 .954.425.954.951" fill="#FCCFA9"/><path d="M25.45 14.07a.93.93 0 0 1-.579.868.956.956 0 0 1-.362.073.957.957 0 0 1-.667-.277.935.935 0 0 1-.274-.664.94.94 0 0 1 1.883 0Z" fill="#FCCFAA"/><path d="M25.438 14.07a.929.929 0 1 1-1.858 0 .929.929 0 0 1 1.858 0Z" fill="#FCD0AB"/><path d="M25.427 14.07a.907.907 0 0 1-.267.646.927.927 0 0 1-.65.27.928.928 0 0 1-.65-.27.908.908 0 0 1-.267-.646c0-.242.095-.473.267-.645a.917.917 0 0 1 1.567.645Z" fill="#FCD0AC"/><path d="M25.415 14.07a.903.903 0 0 1-1.547.637.898.898 0 0 1-.263-.637.904.904 0 0 1 1.546-.636c.17.169.264.398.264.636Z" fill="#FCD1AD"/><path d="M25.401 14.07a.88.88 0 0 1-.259.629.898.898 0 0 1-.976.194.896.896 0 0 1-.483-.483.88.88 0 0 1-.067-.34.88.88 0 0 1 .26-.629.896.896 0 0 1 .633-.262c.493 0 .892.4.892.891Z" fill="#FCD2AE"/><path d="M25.39 14.07a.867.867 0 0 1-.255.62.885.885 0 0 1-1.44-.284.867.867 0 0 1-.065-.336.866.866 0 0 1 .256-.62.885.885 0 0 1 1.439.285c.044.106.066.22.066.335Z" fill="#FCD2AF"/><path d="M25.378 14.07a.857.857 0 0 1-.535.8.877.877 0 0 1-.667 0 .873.873 0 0 1-.47-.469.855.855 0 0 1-.065-.331.853.853 0 0 1 .253-.611.874.874 0 0 1 .616-.255c.48 0 .867.387.867.866Z" fill="#FCD3B0"/><path d="M25.365 14.07a.84.84 0 0 1-.248.603.858.858 0 0 1-1.464-.603.842.842 0 0 1 .25-.603.859.859 0 0 1 1.398.277.843.843 0 0 1 .064.326Z" fill="#FCD3B1"/><path d="M25.354 14.07a.83.83 0 0 1-.245.595.849.849 0 0 1-1.198 0 .838.838 0 0 1-.245-.595.843.843 0 0 1 1.688 0Z" fill="#FCD4B2"/><path d="M25.341 14.07a.819.819 0 0 1-.241.586.835.835 0 0 1-1.36-.269.831.831 0 1 1 1.602-.317Z" fill="#FCD4B3"/><path d="M25.329 14.07a.818.818 0 1 1-1.637 0 .818.818 0 0 1 1.637 0Z" fill="#FCD5B4"/><path d="M25.317 14.07a.796.796 0 0 1-.497.744.816.816 0 0 1-.882-.176.806.806 0 0 1 .573-1.373c.445 0 .806.36.806.805Z" fill="#FDD5B4"/><path d="M25.304 14.07a.796.796 0 1 1-1.594-.001.796.796 0 0 1 1.595.001" fill="#FDD6B5"/><path d="M25.292 14.07a.77.77 0 0 1-.228.552.786.786 0 0 1-1.11 0 .783.783 0 1 1 1.339-.551" fill="#FDD6B6"/><path d="M25.28 14.07a.77.77 0 1 1-1.54 0 .77.77 0 0 1 1.54 0Z" fill="#FDD7B7"/><path d="M25.268 14.07a.748.748 0 0 1-.467.699.768.768 0 0 1-.291.059.767.767 0 0 1-.702-.47.757.757 0 0 1 .701-1.045c.419 0 .759.338.759.757Z" fill="#FDD7B8"/><path d="M25.255 14.07a.744.744 0 1 1-1.489.001.744.744 0 0 1 1.49-.001Z" fill="#FDD8B9"/><path d="M25.243 14.07a.734.734 0 1 1-1.468 0 .734.734 0 0 1 1.468 0Z" fill="#FDD8BA"/><path d="M25.23 14.07a.712.712 0 0 1-.443.665.732.732 0 0 1-.555 0 .726.726 0 0 1-.391-.39.721.721 0 1 1 1.39-.275Z" fill="#FDD9BB"/><path d="M25.218 14.07a.7.7 0 0 1-.436.654.72.72 0 0 1-.545 0 .716.716 0 0 1-.384-.384.709.709 0 1 1 1.366-.27Z" fill="#FDD9BC"/><path d="M25.207 14.07a.686.686 0 0 1-.43.643.705.705 0 0 1-.762-.152.697.697 0 1 1 1.191-.49Z" fill="#FDDABD"/><path d="M25.195 14.07a.676.676 0 0 1-.422.632.695.695 0 0 1-.526 0 .689.689 0 0 1-.372-.37.685.685 0 1 1 1.32-.261Z" fill="#FDDABD"/><path d="M25.182 14.07a.663.663 0 0 1-.413.62.68.68 0 0 1-.881-.364.673.673 0 1 1 1.295-.256Z" fill="#FDDBBE"/><path d="M25.17 14.07a.65.65 0 0 1-.191.466.665.665 0 0 1-.937 0 .656.656 0 0 1-.192-.466.66.66 0 0 1 1.32 0Z" fill="#FDDBBF"/><path d="M25.16 14.07a.648.648 0 1 1-1.295-.002.648.648 0 0 1 1.293.002" fill="#FDDCC0"/><path d="M25.146 14.07a.637.637 0 1 1-1.27-.001.637.637 0 0 1 1.27.001" fill="#FDDCC1"/><path d="M25.134 14.07a.614.614 0 0 1-.384.575.635.635 0 0 1-.48 0 .627.627 0 0 1-.338-.337.623.623 0 1 1 1.202-.238Z" fill="#FDDDC2"/><path d="M25.121 14.07a.613.613 0 0 1-1.177.233.61.61 0 0 1 .566-.843c.337 0 .611.274.611.61Z" fill="#FDDDC3"/><path d="M25.109 14.07a.592.592 0 0 1-.369.553.609.609 0 0 1-.46 0 .602.602 0 0 1-.37-.553.6.6 0 0 1 1.199.001" fill="#FDDEC3"/><path d="M25.096 14.07a.586.586 0 1 1-.586-.586c.325 0 .588.262.588.587" fill="#FDDEC4"/><path d="M25.084 14.07a.575.575 0 1 1-.575-.574c.317 0 .575.258.575.575" fill="#FDDFC5"/><path d="M25.072 14.07a.562.562 0 1 1-1.124.002.562.562 0 0 1 1.124-.002Z" fill="#FDDFC6"/><path d="M25.06 14.07a.55.55 0 1 1-1.1 0 .55.55 0 0 1 1.1 0Z" fill="#FEE0C7"/><path d="M25.048 14.07a.537.537 0 0 1-.92.38.535.535 0 0 1-.156-.38.538.538 0 0 1 1.076 0Z" fill="#FEE0C7"/><path d="M25.036 14.07a.524.524 0 0 1-.9.37.524.524 0 0 1 .374-.895c.29 0 .526.235.526.525Z" fill="#FEE0C8"/><path d="M25.024 14.07a.514.514 0 1 1-1.027 0 .514.514 0 0 1 1.027 0Z" fill="#FEE1C9"/><path d="M25.012 14.07c0 .132-.053.26-.146.353a.508.508 0 0 1-.356.148.508.508 0 0 1-.355-.147.498.498 0 0 1 0-.706.508.508 0 0 1 .355-.148c.134.001.261.054.355.148.094.093.147.22.147.352Z" fill="#FEE1CA"/><path d="M24.998 14.07c.001.13-.05.253-.142.345a.495.495 0 0 1-.535.107.493.493 0 0 1-.302-.452.495.495 0 0 1 .49-.488c.13.002.255.053.346.145a.485.485 0 0 1 .143.343Z" fill="#FEE2CB"/><path d="M24.987 14.07a.472.472 0 0 1-.294.44.483.483 0 0 1-.367 0 .48.48 0 0 1-.294-.44.477.477 0 0 1 .955 0Z" fill="#FEE2CB"/><path d="M24.975 14.07a.459.459 0 0 1-.287.429.472.472 0 0 1-.357 0 .469.469 0 0 1-.286-.429.46.46 0 0 1 .135-.327.47.47 0 0 1 .33-.137.47.47 0 0 1 .33.137.46.46 0 0 1 .135.327Z" fill="#FEE3CC"/><path d="M24.962 14.07a.452.452 0 1 1-.904 0 .452.452 0 0 1 .904 0Z" fill="#FEE3CD"/><path d="M24.951 14.07a.433.433 0 0 1-.272.408.447.447 0 0 1-.34-.001.442.442 0 0 1-.237-.575.434.434 0 0 1 .239-.238.447.447 0 0 1 .339 0 .443.443 0 0 1 .271.406Z" fill="#FEE4CE"/><path d="M24.939 14.07a.422.422 0 0 1-.265.396.433.433 0 0 1-.468-.094.423.423 0 0 1-.092-.465.423.423 0 0 1 .232-.232.434.434 0 0 1 .469.093.425.425 0 0 1 .125.302" fill="#FEE4CE"/><path d="M24.925 14.07a.409.409 0 0 1-.256.384.42.42 0 0 1-.456-.09.414.414 0 0 1 .136-.677.42.42 0 0 1 .546.224c.021.05.032.105.032.159" fill="#FEE4CF"/><path d="M24.914 14.07a.4.4 0 0 1-.249.373.412.412 0 0 1-.31 0 .404.404 0 0 1-.25-.373c0-.223.181-.402.405-.402.223 0 .404.18.404.402Z" fill="#FEE5D0"/><path d="M24.901 14.07a.386.386 0 0 1-.24.362.397.397 0 0 1-.302 0 .394.394 0 0 1-.24-.362.392.392 0 0 1 .782 0Z" fill="#FEE5D0"/><path d="M24.889 14.07a.374.374 0 0 1-.233.35.384.384 0 0 1-.292 0 .38.38 0 0 1-.233-.35.379.379 0 0 1 .758 0Z" fill="#FEE6D1"/><path d="M24.878 14.07a.367.367 0 0 1-.708.14.366.366 0 0 1 .34-.506c.203 0 .368.163.368.366Z" fill="#FEE6D2"/><path d="M24.865 14.07a.352.352 0 0 1-.103.25.36.36 0 0 1-.252.105.36.36 0 0 1-.251-.105.354.354 0 1 1 .607-.25Z" fill="#FEE6D2"/><path d="M24.852 14.07a.339.339 0 0 1-.21.317.348.348 0 0 1-.265 0 .345.345 0 0 1-.211-.317.342.342 0 1 1 .686 0Z" fill="#FEE7D3"/><path d="M24.84 14.07a.327.327 0 0 1-.33.331.337.337 0 0 1-.235-.097.327.327 0 0 1-.096-.234.33.33 0 0 1 .33-.33.33.33 0 0 1 .332.33Z" fill="#FEE7D4"/><path d="M24.828 14.07a.319.319 0 1 1-.637 0 .319.319 0 0 1 .637 0Z" fill="#FEE7D4"/><path d="M24.813 14.066a.3.3 0 0 1-.09.213.306.306 0 0 1-.519-.213.3.3 0 0 1 .09-.213.306.306 0 0 1 .43 0 .3.3 0 0 1 .089.213Z" fill="#FEE8D5"/><path d="M24.8 14.066c0 .077-.03.15-.085.205a.294.294 0 0 1-.5-.205.294.294 0 0 1 .585 0Z" fill="#FEE8D6"/><path d="M24.79 14.066a.282.282 0 0 1-.479.196.276.276 0 0 1 .198-.473.276.276 0 0 1 .28.277Z" fill="#FEE9D6"/><path d="M24.777 14.066a.27.27 0 0 1-.457.187.264.264 0 0 1 .189-.452.27.27 0 0 1 .19.078c.05.05.078.117.078.187Z" fill="#FEE9D7"/><path d="M24.765 14.066a.253.253 0 0 1-.075.18.258.258 0 0 1-.438-.18c0-.067.027-.132.075-.18a.258.258 0 0 1 .438.18Z" fill="#FFE9D8"/><path d="M24.752 14.066a.24.24 0 0 1-.071.17.245.245 0 0 1-.416-.17.245.245 0 0 1 .488 0Z" fill="#FFEAD8"/><path d="M24.74 14.066a.226.226 0 0 1-.062.174.23.23 0 0 1-.17.073.233.233 0 0 1-.22-.154.228.228 0 0 1 .062-.244.234.234 0 0 1 .39.151Z" fill="#FFEAD9"/><path d="M24.729 14.068a.216.216 0 0 1-.065.153.221.221 0 0 1-.31 0 .216.216 0 0 1 .155-.371c.058 0 .114.023.155.064.041.04.065.096.065.154Z" fill="#FFEAD9"/><path d="M24.717 14.068a.205.205 0 0 1-.061.145.21.21 0 0 1-.295 0 .205.205 0 0 1 .147-.352.21.21 0 0 1 .148.06c.039.04.06.092.06.147Z" fill="#FFEBDA"/><path d="M24.704 14.068c0 .05-.02.1-.057.136a.197.197 0 0 1-.334-.136c0-.052.02-.101.057-.137a.197.197 0 0 1 .277 0 .193.193 0 0 1 .057.137Z" fill="#FFEBDA"/><path d="M24.692 14.068a.18.18 0 0 1-.114.167.185.185 0 0 1-.239-.098.18.18 0 0 1 .04-.198.184.184 0 0 1 .259 0 .18.18 0 0 1 .053.129Z" fill="#FFEBDB"/><path d="M24.679 14.068a.168.168 0 0 1-.05.119.172.172 0 0 1-.241 0 .168.168 0 0 1 .12-.288c.046 0 .089.018.121.05.032.03.05.074.05.119Z" fill="#FFEBDC"/><path d="M24.668 14.068a.156.156 0 0 1-.047.11.16.16 0 0 1-.271-.11c0-.042.016-.082.046-.112a.16.16 0 0 1 .225 0c.03.03.047.07.047.112Z" fill="#FFECDC"/><path d="M24.655 14.069a.147.147 0 0 1-.293 0c0-.039.016-.076.043-.103a.147.147 0 0 1 .25.103Z" fill="#FFECDC"/><path d="M24.644 14.069a.133.133 0 0 1-.135.146.137.137 0 0 1-.1-.043.132.132 0 0 1 .01-.19.136.136 0 0 1 .225.087Z" fill="#FFECDD"/><path d="M24.63 14.069a.12.12 0 0 1-.035.085.123.123 0 0 1-.173 0 .12.12 0 0 1 .086-.207c.033 0 .064.013.087.036a.12.12 0 0 1 .036.086Z" fill="#FFEDDD"/><path d="M24.62 14.069a.109.109 0 0 1-.033.077.111.111 0 0 1-.189-.077.11.11 0 0 1 .111-.11.11.11 0 0 1 .11.11Z" fill="#FFEDDE"/><path d="M24.608 14.069a.098.098 0 0 1-.098.108.1.1 0 0 1-.074-.032.096.096 0 0 1-.024-.076.097.097 0 0 1 .032-.062.1.1 0 0 1 .164.062Z" fill="#FFEDDE"/><path d="M24.596 14.069c0 .022-.01.044-.025.06a.087.087 0 0 1-.123 0 .085.085 0 0 1 0-.12.087.087 0 0 1 .148.06Z" fill="#FFEDDF"/><path d="M24.583 14.07a.073.073 0 0 1-.043.077.075.075 0 0 1-.087-.019.074.074 0 0 1-.018-.058.074.074 0 0 1 .074-.064c.018 0 .036.006.05.018a.074.074 0 0 1 .024.046Z" fill="#FFEDDF"/><path d="M24.572 14.07a.062.062 0 0 1-.124 0c0-.016.007-.032.018-.043a.062.062 0 0 1 .106.043Z" fill="#FFEEDF"/><path d="M24.559 14.07a.05.05 0 0 1-.015.035.05.05 0 0 1-.036.015.05.05 0 0 1-.049-.05.05.05 0 0 1 .015-.035.049.049 0 0 1 .035-.015.05.05 0 0 1 .05.05Z" fill="#FFEEE0"/><path d="M24.547 14.07a.037.037 0 0 1-.037.044.039.039 0 0 1-.03-.013.037.037 0 0 1-.008-.031c0-.01.004-.02.011-.027a.038.038 0 0 1 .054 0 .037.037 0 0 1 .011.027" fill="#FFEEE0"/><path d="M24.535 14.07a.025.025 0 0 1-.025.025.025.025 0 0 1-.026-.025c0-.007.003-.013.008-.018a.025.025 0 0 1 .043.018Z" fill="#FFEEE0"/></g></svg>