<svg width="48" height="30" fill="none" xmlns="http://www.w3.org/2000/svg"><path d="M46.737 0H1.263C.566 0 0 .56 0 1.25v27.5C0 29.44.566 30 1.263 30h45.474c.697 0 1.263-.56 1.263-1.25V1.25C48 .56 47.434 0 46.737 0Z" fill="#13457C"/><path fill-rule="evenodd" clip-rule="evenodd" d="m29.625 23.785.442-.012.437-.032.43-.053.424-.075.414-.096.407-.116.4-.135.39-.152.381-.173.37-.187.359-.208.35-.221.336-.239.323-.253.312-.268.298-.285.287-.297.268-.312.255-.321.24-.335.222-.348.209-.357.187-.369.174-.38.153-.389.136-.397.116-.405.095-.413.076-.422.054-.426.033-.435.01-.441-.01-.438-.033-.431-.054-.428-.076-.417-.095-.412-.116-.403-.136-.397-.153-.386-.174-.377-.187-.369-.209-.354-.222-.348-.24-.334-.255-.319-.268-.311-.287-.298-.298-.281-.312-.269-.323-.252-.336-.24-.35-.222-.359-.203-.37-.188-.381-.174-.39-.152-.4-.135-.407-.115-.414-.095-.426-.075-.428-.055-.436-.031-.442-.013-.44.013-.436.031-.429.055-.422.075-.414.095-.408.115-.395.135-.392.152-.379.175-.366.187-.358.203-.348.222-.335.24-.323.252-.311.269-.297.281-.284.298-.268.311-.255.319-.237.334-.223.35-.204.352-.192.369-.17.377-.154.386-.132.397-.117.403-.096.413-.074.416-.054.428-.032.431-.013.438.013.44.032.436.054.425.076.424.094.412.117.405.132.398.154.388.17.38.192.369.204.358.223.347.237.335.255.321.268.313.284.296.297.285.31.267.324.254.335.238.349.222.357.208.366.187.38.173.39.152.396.135.408.116.415.096.421.075.429.053.437.033.438.011Z" fill="#FBB231"/><path fill-rule="evenodd" clip-rule="evenodd" d="m18.157 23.785.44-.012.436-.032.428-.053.422-.075.413-.096.407-.116.398-.135.39-.152.38-.173.366-.187.358-.208.348-.221.336-.239.323-.253.31-.268.298-.285.283-.297.269-.312.253-.321.238-.335.222-.348.206-.357.19-.369.172-.38.152-.389.134-.397.115-.405.096-.413.075-.422.055-.426.032-.435.011-.441-.012-.438-.03-.431-.056-.428-.075-.417-.096-.412-.115-.403-.134-.397-.152-.386-.171-.377-.19-.369-.207-.354-.222-.348-.238-.334-.252-.319-.27-.311-.283-.298-.299-.281-.309-.269-.323-.252-.336-.24-.348-.222-.357-.203-.368-.188-.379-.174-.391-.152-.397-.135-.407-.115-.413-.095-.422-.075-.43-.055-.435-.031-.44-.013-.441.013-.438.031-.428.055-.425.075-.413.095-.407.115-.4.135-.39.152-.381.175-.37.187-.36.203-.349.222-.336.24-.323.252-.314.269-.296.281-.287.298-.27.311-.253.319-.24.334-.224.35-.208.352-.187.369-.174.377-.152.386-.136.397-.117.403-.096.413-.075.416-.055.428-.031.431-.012.438.012.44.031.436.056.425.076.424.094.412.117.405.135.398.153.388.174.38.187.369.208.358.224.347.24.335.254.321.269.313.287.296.296.285.314.267.323.254.336.238.35.222.359.208.37.187.381.173.39.152.4.135.407.116.413.096.425.075.428.053.438.033.442.011Z" fill="#EC1C2E"/><path fill-rule="evenodd" clip-rule="evenodd" d="M22.889 10.182h4.553v-.66H23.28l-.391.66Zm-.682 1.03h5.235v-.66h-4.961l-.274.66Zm-.51 1.03h5.747v-.66h-5.546l-.202.66Zm-.35 1.03h6.097v-.66h-5.952l-.146.66Zm.203 4.982h5.908v-.66h-6.053l.145.66Zm.436 1.031h5.472v-.66H21.77l.216.66Zm.612 1.027h4.86v-.66h-5.151l.291.66Zm.845 1.028h4.015v-.66h-4.421l.406.66Zm-2.301-7.04h6.3v-.66H21.23l-.088.66Zm3.84 2.925h2.402v-.659h-2.316l-.086.659Zm.19-1.03h2.212v-.66H25.26l-.087.66Zm-4.19-.66h.668v.66h-.637l-.032-.66Z" fill="#FBB231"/><path fill-rule="evenodd" clip-rule="evenodd" d="m19.817 14.974-.04-.004-.041-.005-.038-.006-.038-.005-.034-.007-.038-.006-.038-.005-.04-.006-.04-.005-.046-.004-.052-.002-.055-.003h-.061l-.067.003-.076.006-.082.005-.058.009-.056.008-.049.018-.043.018-.04.02-.038.022-.03.03-.024.025-.018.031-.015.033-.005.034v.034l.008.038.012.037.023.038.029.038.058.053.07.044.08.037.087.032.092.03.096.031.095.035.092.037.089.05.08.06.071.072.061.088.047.11.029.13.012.155-.012.182-.02.135-.036.117-.045.11-.058.095-.067.084-.076.071-.08.064-.09.055-.092.043-.096.037-.098.029-.101.023-.099.018-.096.009-.094.005-.089.002h-.126l-.115-.002h-.101l-.096-.003-.086-.002-.078-.007-.07-.006-.067-.008-.06-.006-.056-.012-.053-.009-.05-.012-.05-.013-.045-.017-.047-.018-.05-.017.13-.635.026.005.033.009.04.01.05.013.051.012.059.01.063.014.07.013.071.01.076.012.078.01.081.008.083.002.085.003h.083l.084-.003.084-.017.067-.023.052-.032.04-.04.028-.04.023-.046.015-.046.013-.043.005-.084-.025-.072-.05-.058-.073-.048-.086-.043-.1-.044-.114-.041-.114-.045-.114-.051-.111-.062-.101-.075-.092-.088-.072-.11-.052-.13-.027-.155.003-.184.015-.112.02-.108.028-.098.035-.09.047-.088.052-.075.06-.072.073-.062.084-.055.093-.046.104-.044.115-.031.13-.026.142-.02.155-.013.172-.002h.106l.099.003.09.003.08.002.072.006.067.005.058.007.052.006.05.005.04.009.038.006.035.005.028.006.026.003.026.006.024.002-.148.652Z" fill="#fff"/><path d="m19.817 14.974-.04-.004-.041-.005-.038-.006-.038-.005-.034-.007-.038-.006-.038-.005-.04-.006-.04-.005-.046-.004-.052-.002-.055-.003h-.061l-.067.003-.076.006-.082.005-.058.009-.056.008-.049.018-.043.018-.04.02-.038.022-.03.03-.024.025-.018.031-.015.033-.005.034v.034l.008.038.012.037.023.038.029.038.058.053.07.044.08.037.087.032.092.03.096.031.095.035.092.037.089.05.08.06.071.072.061.088.047.11.029.13.012.155-.012.182-.02.135-.036.117-.045.11-.058.095-.067.084-.076.071-.08.064-.09.055-.092.043-.096.037-.098.029-.101.023-.099.018-.096.009-.094.005-.089.002h-.126l-.115-.002h-.101l-.096-.003-.086-.002-.078-.007-.07-.006-.067-.008-.06-.006-.056-.012-.053-.009-.05-.012-.05-.013-.045-.017-.047-.018-.05-.017.13-.635.026.005.033.009.04.01.05.013.051.012.059.01.063.014.07.013.071.01.076.012.078.01.081.008.083.002.085.003h.083l.084-.003.084-.017.067-.023.052-.032.04-.04.028-.04.023-.046.015-.046.013-.043.005-.084-.025-.072-.05-.058-.073-.048-.086-.043-.1-.044-.114-.041-.114-.045-.114-.051-.111-.062-.101-.075-.092-.088-.072-.11-.052-.13-.027-.155.003-.184.015-.112.02-.108.028-.098.035-.09.047-.088.052-.075.06-.072.073-.062.084-.055.093-.046.104-.044.115-.031.13-.026.142-.02.155-.013.172-.002h.106l.099.003.09.003.08.002.072.006.067.005.058.007.052.006.05.005.04.009.038.006.035.005.028.006.026.003.026.006.024.002-.148.65" stroke="#fff" stroke-width=".216"/><path fill-rule="evenodd" clip-rule="evenodd" d="M20.501 13.613h.802l-.119.696h.483l-.104.65-.509-.014-.278 1.606-.002.058.014.05.029.037.038.031.052.02.058.018.063.011.07.006.062-.003.06-.005.05-.009.048-.012.037-.012.025-.008.018-.006.006-.003-.1.536-.021.014-.02.012-.022.011-.019.012-.02.008-.024.01-.025.008-.025.009-.03.007-.03.007-.034.006-.035.006-.038.005-.043.006-.046.005-.05.006h-.219l-.116-.008-.1-.013-.093-.016-.078-.02-.067-.026-.055-.029-.049-.035-.038-.038-.029-.04-.02-.048-.015-.05-.008-.054-.002-.06v-.064l.009-.066.007-.072.552-3.14Z" fill="#fff"/><path d="M20.501 13.613h.802l-.119.696h.483l-.104.65-.509-.014-.278 1.606-.002.058.014.05.029.037.038.031.052.02.058.018.063.011.07.006.062-.003.06-.005.05-.009.048-.012.037-.012.025-.008.018-.006.006-.003-.1.536-.021.014-.02.012-.022.011-.019.012-.02.008-.024.01-.025.008-.025.009-.03.007-.03.007-.034.006-.035.006-.038.005-.043.006-.046.005-.05.006h-.219l-.116-.008-.1-.013-.093-.016-.078-.02-.067-.026-.055-.029-.049-.035-.038-.038-.029-.04-.02-.048-.015-.05-.008-.054-.002-.06v-.064l.009-.066.007-.072.553-3.142" stroke="#fff" stroke-width=".216"/><path d="m22.306 16.045-.008.049-.002.051.003.055.013.055.02.055.023.051.032.055.035.049.04.05.043.043.047.042.05.035.054.031.058.025.058.021.057.013.075.01.072.01.076.008.076.006.075.002h.078l.076-.002.075-.006.08-.012.078-.015.081-.016.077-.025.082-.032.084-.035.08-.045.085-.05-.116.708-.047.023-.047.023-.045.017-.043.018-.043.013-.047.015-.046.012-.05.01-.051.008-.059.005-.06.006-.067.005-.076.004h-.077l-.088.002h-.096l-.143-.002-.144-.015-.144-.02-.145-.035-.142-.043-.136-.055-.13-.072-.122-.084-.113-.097-.098-.118-.083-.132-.07-.154-.05-.169-.032-.194-.007-.212.012-.236.013-.093.018-.106.023-.112.032-.122.043-.122.05-.125.07-.125.08-.121.092-.117.114-.109.126-.098.145-.086.167-.072.19-.052.207-.034.235-.012.112.003.119.011.117.02.12.03.115.043.113.051.105.069.094.081.087.098.073.116.058.131.04.154.023.171.002.196-.02.22-.043.242-.014.175h-2.11l.135-.568h1.267l.005-.071-.003-.069-.006-.064-.012-.057-.02-.055-.02-.05-.029-.043-.03-.04-.033-.033-.038-.03-.043-.025-.044-.024-.046-.016-.046-.013-.05-.008-.05-.006-.057.003-.05.009-.05.012-.05.017-.05.022-.041.026-.045.033-.038.034-.037.04-.034.043-.032.046-.025.05-.027.05-.02.06-.018.055-.012.062-.115.596" stroke="#fff" stroke-width=".216"/><path fill-rule="evenodd" clip-rule="evenodd" d="m29.205 14.481-.04-.02-.037-.017-.04-.02-.044-.02-.043-.018-.049-.017-.05-.018-.051-.016-.056-.015-.054-.013-.062-.01-.06-.008-.066-.006-.067-.007h-.214l-.075.007-.077.008-.082.014-.08.024-.082.031-.08.041-.082.05-.078.065-.076.075-.072.091-.068.107-.065.127-.06.144-.055.162-.046.184-.017.103-.012.1-.005.102.002.098.009.097.02.093.025.087.033.085.043.078.052.075.06.066.07.061.078.052.089.042.098.037.111.027.038.008.043.01.052.006.058.006.063.005h.14l.071-.005.076-.01.076-.014.072-.02.072-.024.072-.031.067-.037.06-.047.057-.051-.13.769-.016.014-.018.017-.024.021-.025.017-.032.022-.04.021-.047.02-.052.017-.065.02-.076.015-.087.012-.101.011-.113.005-.13.004-.148-.004-.163-.008-.132-.014-.133-.029-.133-.044-.132-.057-.128-.069-.12-.087-.117-.1-.107-.116-.095-.13-.081-.143-.07-.162-.051-.174-.034-.194-.013-.204.006-.225.032-.239.024-.117.025-.116.03-.113.028-.106.032-.1.038-.1.037-.097.04-.088.044-.09.043-.084.05-.08.05-.075.053-.072.058-.07.058-.062.06-.061.066-.058.067-.054.07-.05.073-.046.077-.043.078-.037.081-.035.085-.03.088-.03.09-.023.093-.02.098-.017.098-.014.105-.013.104-.005.11-.004.092.004.09.006.086.009.088.011.08.012.079.017.074.014.07.017.067.018.058.017.054.018.047.016.04.015.034.013.026.01.019.006-.144.797Z" fill="#fff"/><path d="m29.205 14.481-.04-.02-.037-.017-.04-.02-.044-.02-.043-.018-.049-.017-.05-.018-.051-.016-.056-.015-.054-.013-.062-.01-.06-.008-.066-.006-.067-.007h-.214l-.075.007-.077.008-.082.014-.08.024-.082.031-.08.041-.082.05-.078.065-.076.075-.072.091-.068.107-.065.127-.06.144-.055.162-.046.184-.017.103-.012.1-.005.102.002.098.009.097.02.093.025.087.033.085.043.078.052.075.06.066.07.061.078.052.089.042.098.037.111.027.038.008.043.01.052.006.058.006.063.005h.14l.071-.005.076-.01.076-.014.072-.02.072-.024.072-.031.067-.037.06-.047.057-.051-.13.769-.016.014-.018.017-.024.021-.025.017-.032.022-.04.021-.047.02-.052.017-.065.02-.076.015-.087.012-.101.011-.113.005-.13.004-.148-.004-.163-.008-.132-.014-.133-.029-.133-.044-.132-.057-.128-.069-.12-.087-.117-.1-.107-.116-.095-.13-.081-.143-.07-.162-.051-.174-.034-.194-.013-.204.006-.225.032-.239.024-.117.025-.116.03-.113.028-.106.032-.1.038-.1.037-.097.04-.088.044-.09.043-.084.05-.08.05-.075.053-.072.058-.07.058-.062.06-.061.066-.058.067-.054.07-.05.073-.046.077-.043.078-.037.081-.035.085-.03.088-.03.09-.023.093-.02.098-.017.098-.014.105-.013.104-.005.11-.004.092.004.09.006.086.009.088.011.08.012.079.017.074.014.07.017.067.018.058.017.054.018.047.016.04.015.034.013.026.01.019.006-.146.797" stroke="#fff" stroke-width=".216"/><path fill-rule="evenodd" clip-rule="evenodd" d="M36.322 17.392h-.8l.058-.32v-.028l-.047.057-.048.053-.05.045-.051.041-.053.038-.052.03-.053.026-.054.027-.055.02-.055.014-.055.014-.058.009-.058.008-.055.007-.057.002h-.058l-.152-.011-.138-.032-.126-.05-.116-.064-.105-.084-.092-.098-.081-.107-.07-.12-.058-.13-.045-.135-.033-.142-.023-.147-.007-.146.002-.15.014-.146.026-.148.044-.17.053-.161.06-.146.072-.138.076-.131.086-.115.089-.103.095-.096.102-.084.107-.071.11-.063.11-.05.115-.04.116-.024.116-.02.119-.004.083.002.081.009.076.014.07.021.065.022.058.025.058.033.052.032.047.034.043.038.038.037.034.038.029.037.026.038.023.035.018.034.202-1.132h.787l-.655 3.766Z" fill="#fff"/><path d="M36.322 17.392h-.8l.058-.32v-.028l-.047.057-.048.053-.05.045-.051.041-.053.038-.052.03-.053.026-.054.027-.055.02-.055.014-.055.014-.058.009-.058.008-.055.007-.057.002h-.058l-.152-.011-.138-.032-.126-.05-.116-.064-.105-.084-.092-.098-.081-.107-.07-.12-.058-.13-.045-.135-.033-.142-.023-.147-.007-.146.002-.15.014-.146.026-.148.044-.17.053-.161.06-.146.072-.138.076-.131.086-.115.089-.103.095-.096.102-.084.107-.071.11-.063.11-.05.115-.04.116-.024.116-.02.119-.004.083.002.081.009.076.014.07.021.065.022.058.025.058.033.052.032.047.034.043.038.038.037.034.038.029.037.026.038.023.035.018.034.202-1.132h.787l-.655 3.766" stroke="#fff" stroke-width=".216"/><path fill-rule="evenodd" clip-rule="evenodd" d="m35.013 16.695.082-.005.074-.018.07-.02.067-.03.06-.036.057-.043.056-.05.05-.052.042-.057.04-.063.038-.066.032-.069.029-.072.024-.075.019-.078.014-.077.015-.08.009-.084v-.079l-.004-.08-.008-.075-.012-.072-.02-.069-.023-.066-.03-.058-.034-.055-.037-.046-.043-.04-.05-.035-.051-.022-.056-.014-.06-.007-.079.007-.072.011-.066.023-.067.028-.058.038-.058.046-.048.05-.05.054-.043.062-.04.068-.039.069-.031.075-.03.077-.022.078-.023.083-.017.084-.015.126.006.138.02.141.038.136.058.118.075.095.094.063.117.023Z" fill="#FBB231"/><path fill-rule="evenodd" clip-rule="evenodd" d="m17.255 16.753-.116.64h-.729l.02-.12.015-.105.012-.08.012-.044-.041.046-.047.046-.054.044-.061.04-.07.04-.073.034-.074.035-.077.029-.085.024-.085.022-.082.017-.088.013-.083.005-.084.002-.08-.008-.079-.012-.101-.025-.094-.03-.08-.037-.072-.043-.063-.046-.059-.052-.046-.054-.04-.058-.035-.061-.029-.063-.023-.063-.017-.063-.013-.067-.008-.067-.006-.062v-.064l.009-.112.018-.107.029-.1.038-.098.045-.093.052-.084.062-.08.07-.072.071-.066.081-.06.083-.055.088-.046.092-.04.096-.033.097-.025.101-.018h.006l.016-.003.019-.003.032-.002.034-.005.04-.004.044-.005.05-.006.05-.005.049-.007.05-.003.047-.005.047-.003.043-.004.04-.002h.099l.07.002.064.004h.063l.05.003.042.002.03.003h.008l.005-.02.018-.051.015-.062.005-.053-.011-.063-.026-.059-.035-.051-.047-.044-.054-.037-.06-.025-.07-.019-.076-.005-.08-.002-.088-.004h-.088l-.094.004-.095.005-.093.008-.092.009-.09.012-.087.01-.084.015-.075.014-.069.015-.063.018-.053.017-.04.02-.032.016.205-.693.064-.025.063-.024.07-.02.07-.014.069-.015.076-.012.074-.011.079-.005.08-.007.084-.002.087-.003h.277l.1.003.102.002.08.007.089.013.088.022.093.024.088.035.088.042.086.048.081.054.073.064.064.069.058.077.043.088.029.091.017.098v.11l-.017.114-.29 1.52Z" fill="#fff"/><path d="m17.255 16.753-.116.64h-.729l.02-.12.015-.105.012-.08.012-.044-.041.046-.047.046-.054.044-.061.04-.07.04-.073.034-.074.035-.077.029-.085.024-.085.022-.082.017-.088.013-.083.005-.084.002-.08-.008-.079-.012-.101-.025-.094-.03-.08-.037-.072-.043-.063-.046-.059-.052-.046-.054-.04-.058-.035-.061-.029-.063-.023-.063-.017-.063-.013-.067-.008-.067-.006-.062v-.064l.009-.112.018-.107.029-.1.038-.098.045-.093.052-.084.062-.08.07-.072.071-.066.081-.06.083-.055.088-.046.092-.04.096-.033.097-.025.101-.018h.006l.016-.003.019-.003.032-.002.034-.005.04-.004.044-.005.05-.006.05-.005.049-.007.05-.003.047-.005.047-.003.043-.004.04-.002h.099l.07.002.064.004h.063l.05.003.042.002.03.003h.008l.005-.02.018-.051.015-.062.005-.053-.011-.063-.026-.059-.035-.051-.047-.044-.054-.037-.06-.025-.07-.019-.076-.005-.08-.002-.088-.004h-.088l-.094.004-.095.005-.093.008-.092.009-.09.012-.087.01-.084.015-.075.014-.069.015-.063.018-.053.017-.04.02-.032.016.205-.693.064-.025.063-.024.07-.02.07-.014.069-.015.076-.012.074-.011.079-.005.08-.007.084-.002.087-.003h.277l.1.003.102.002.08.007.089.013.088.022.093.024.088.035.088.042.086.048.081.054.073.064.064.069.058.077.043.088.029.091.017.098v.11l-.017.114-.292 1.52" stroke="#fff" stroke-width=".216"/><path fill-rule="evenodd" clip-rule="evenodd" d="m16.558 16.001-.003-.014-.012-.014-.017-.01-.029-.004-.031-.006-.038-.003h-.086l-.048.003-.048.006-.047.005-.045.006-.045.006-.04.008-.034.008-.033.01-.02.006-.023.008-.031.012-.032.013-.038.018-.038.021-.04.019-.038.023-.04.03-.038.028-.035.035-.031.035-.03.036-.02.041-.017.045-.009.047-.002.098.015.078.027.058.038.042.045.03.049.016.045.009.047.003.087-.003.079-.009.075-.012.065-.017.06-.02.053-.024.048-.027.045-.032.038-.029.034-.034.029-.032.024-.034.019-.035.017-.034.015-.032.008-.032.025-.083.02-.095.017-.093.014-.075Z" fill="#EC1C2E"/><path fill-rule="evenodd" clip-rule="evenodd" d="M11.17 17.392h-.785l.657-3.78h1.366l.13 2.243.945-2.244h1.429l-.67 3.781h-.787l.497-2.824h-.032l-1.177 2.824h-.887l-.005-.118-.021-.313-.025-.446-.03-.514-.029-.515-.026-.451-.02-.329-.007-.137h-.043l-.48 2.823Z" fill="#fff"/><path clip-rule="evenodd" d="M11.17 17.392h-.785l.657-3.78h1.366l.13 2.243.945-2.244h1.429l-.67 3.781h-.787l.497-2.824h-.032l-1.177 2.824h-.887l-.005-.118-.021-.313-.025-.446-.03-.514-.029-.515-.026-.451-.02-.329-.007-.137h-.043l-.48 2.823Z" stroke="#fff" stroke-width=".216"/><path fill-rule="evenodd" clip-rule="evenodd" d="m31.606 16.753-.118.64h-.727l.007-.12.002-.102v-.078l.006-.034-.037.042-.045.044-.051.04-.059.041-.06.038-.068.034-.074.035-.072.028-.078.023-.08.022-.082.015-.08.013-.085.005-.08.002-.08-.008-.076-.012-.104-.025-.093-.03-.081-.037-.076-.043-.063-.046-.056-.052-.045-.054-.042-.058-.034-.061-.025-.063-.023-.063-.015-.063-.013-.067-.007-.067-.007-.062v-.064l.007-.112.017-.107.026-.1.038-.098.043-.093.055-.084.06-.08.066-.072.076-.066.078-.06.084-.055.09-.046.09-.04.095-.033.095-.025.098-.018h.007l.015-.003.019-.003.029-.002.038-.005.04-.004.043-.005.047-.006.05-.005.051-.007.05-.003.05-.005.045-.003.04-.004.04-.002h.102l.07.002.065.004h.064l.055.003.047.002.025.003h.013l.005-.02.009-.051.008-.062.007-.053-.013-.063-.023-.059-.038-.051-.043-.044-.051-.037-.06-.025-.065-.019-.07-.005-.08-.002-.087-.004h-.09l-.093.004-.096.005-.09.008-.094.009-.088.012-.089.01-.083.015-.075.014-.07.015-.063.018-.053.017-.04.02-.032.016.203-.693.063-.025.067-.024.067-.02.07-.014.071-.015.072-.012.076-.011.077-.005.082-.007.083-.002.084-.003h.273l.098.003.097.002.082.007.088.013.088.022.094.024.088.035.09.042.087.048.08.054.074.064.067.069.057.077.043.088.031.091.02.098v.11l-.012.114-.305 1.52Z" fill="#fff"/><path fill-rule="evenodd" clip-rule="evenodd" d="m31.5 17.413.029-.018.196-.639-.059-.006-.195.64.029-.018v.04l.024-.002.005-.015-.03.018Z" fill="#fff"/><path fill-rule="evenodd" clip-rule="evenodd" d="m30.744 17.405.017.034h.727v-.067h-.727l.018.033h-.035l-.003.034h.02l-.017-.034Z" fill="#fff"/><path fill-rule="evenodd" clip-rule="evenodd" d="m30.821 17.084-.042-.038-.02.076-.005.13v.17l-.01.194h.058l.01-.195.01-.17-.006-.129v-.037l-.041-.038.046.037Z" fill="#fff"/><path fill-rule="evenodd" clip-rule="evenodd" d="m29.667 17.675.08.017.079.014.08-.003.084-.01.084-.018.08-.025.081-.035.081-.037.072-.047.076-.055.07-.055.06-.065.06-.065.052-.064.047-.075.038-.068-.029-.038-.038.07-.04.065-.052.064-.054.065-.062.055-.07.056-.068.055-.072.047-.076.037-.08.038-.081.022-.079.017-.084.01-.08.004-.08-.012-.075-.019-.004.055Zm-.701-1.109.004.063.005.063.008.07.013.066.013.063.025.067.025.066.038.06.04.061.046.054.058.055.066.046.076.046.084.038.094.029.106.024.005-.033-.104-.025-.088-.03-.08-.038-.075-.04-.061-.045-.052-.05-.047-.055-.04-.055-.03-.06-.028-.06-.023-.06-.014-.063-.012-.067-.008-.064-.006-.062.002-.064h-.04Zm1.038-1.106-.1.017-.098.025-.096.033-.092.04-.091.046-.086.058-.078.061-.076.069-.07.071-.06.081-.057.088-.043.093-.038.098-.027.104-.017.11-.01.112h.043l.002-.112.018-.104.025-.098.038-.098.043-.089.053-.081.06-.08.064-.072.074-.063.078-.062.081-.05.09-.047.087-.04.096-.031.092-.027.095-.017v-.035Zm.666-.06h-.034l-.046.01-.045.005-.05.004-.058.008-.054.007-.058.009-.056.01-.05.01-.05.008-.045.005-.041.01-.033.004-.026.005-.012.005h-.008v.056h.006l.02-.005.02-.004.032-.005.042-.01.046-.005.048-.008.051-.01.056-.009.058-.01.054-.004.056-.01.052-.005.045-.005h.081l-.001-.066Z" fill="#fff"/><path fill-rule="evenodd" clip-rule="evenodd" d="m31.212 15.453.028-.025h-.018l-.041-.004-.074-.005-.084-.009h-.205l-.11-.01H30.6v.066h.218l.104.01h.185l.074.005.041.005h.018l.025-.025-.025.025.023.004.004-.027-.055-.01Z" fill="#fff"/><path fill-rule="evenodd" clip-rule="evenodd" d="M31.038 15.248h-.005l-.005.09-.014.095-.014.085-.01.032.057.01.01-.034.015-.086.014-.102.015-.09h-.063Z" fill="#fff"/><path fill-rule="evenodd" clip-rule="evenodd" d="M30.675 14.986v.004l.117.005.104.029.1.042.087.058.07.066.06.08.042.086.02.1h.06l-.02-.108-.04-.106-.072-.09-.08-.077-.096-.065-.11-.044-.117-.027-.125-.014v.061ZM29.434 15.217l.029.03.029-.024.038-.034.049-.029.063-.027.07-.024.075-.024.084-.024.083-.018.09-.02.092-.014.092-.014.096-.01h.27l.08.005v-.058l-.08-.003-.087-.01h-.09l-.093.01-.096.008-.092.016-.092.013-.09.019-.088.019-.085.025-.076.022-.07.025-.063.028-.054.029-.044.032-.034.034.029.028-.035-.01Zm.354-.826-.018.015-.336.694.058.006.334-.694-.018.014-.02-.035-.013.004-.005.013.018-.017Z" fill="#fff"/><path fill-rule="evenodd" clip-rule="evenodd" d="m30.934 14.265-.097-.009-.099-.005h-.271l-.085.009-.083.005-.08.01-.08.009-.078.018-.072.02-.072.024-.07.024-.069.033-.066.037-.064.043.012.057.063-.042.067-.038.063-.034.07-.024.072-.024.073-.018.072-.019.078-.01.081-.01.083-.003h.356l.1.003h.096v-.056Zm.993.971.014-.119v-.11l-.02-.1-.032-.095-.045-.088-.058-.082-.071-.07-.072-.064-.083-.055-.088-.052-.092-.041-.09-.034-.094-.026-.091-.02-.089-.014-.082-.006v.034l.082.006.084.014.088.02.091.026.089.035.088.04.086.046.078.055.072.063.063.066.059.075.041.085.032.088.02.095v.11l-.015.112.035.006Zm-.28 1.52.503-1.52-.059-.006-.502 1.52.058.006Z" fill="#fff"/><path fill-rule="evenodd" clip-rule="evenodd" d="m30.905 16.001-.005-.017-.012-.014-.02-.009-.03-.008-.03-.003-.038-.004h-.044l-.043.004-.047.005-.045.006-.046.006-.044.005-.043.01-.038.006-.038.008-.029.005-.02.004-.023.009-.029.007-.031.013-.038.016-.035.017-.04.022-.038.025-.037.025-.038.032-.032.032-.031.037-.026.04-.021.044-.017.046-.008.05-.004.097.014.078.025.058.033.042.044.03.05.016.049.009.049.003.086-.003.08-.009.076-.014.067-.02.063-.023.056-.025.05-.03.047-.034.042-.032.034-.038.032-.034.025-.037.021-.035.013-.035.013-.034.009-.033.012-.08.013-.083.012-.08.005-.073Z" fill="#FBB231"/><path fill-rule="evenodd" clip-rule="evenodd" d="m36.862 17.269.007-.113.022-.132.042-.118.048-.101.06-.084.07-.058.076-.04.08-.014.082.015.075.039.07.058.06.084.05.101.039.118.024.132.006.113h-.088l-.001-.089-.018-.107-.03-.098-.037-.083-.047-.068-.054-.049-.063-.034-.067-.01-.067.01-.063.034-.056.05-.047.067-.037.083-.028.098-.018.107-.005.089h-.085Z" fill="#fff"/><path fill-rule="evenodd" clip-rule="evenodd" d="M37.124 17.11v-.285h.263l.058.005.053.009.038.015.034.018.023.03.019.028.01.032.005.034-.005.043-.01.032-.013.029-.011.01h-.201l.019-.005.032-.005.03-.009.026-.01.018-.014.01-.015.009-.022v-.034l-.005-.025-.01-.018-.016-.01-.012-.01-.026-.003-.024-.005h-.195v.185h-.119Z" fill="#fff"/><path fill-rule="evenodd" clip-rule="evenodd" d="m36.863 16.999-.003.025.01.131.022.121.042.108.048.09.06.075.07.06.075.036.081.012.081-.012.076-.036.07-.059.059-.075.05-.091.04-.108.023-.121.01-.131-.003-.025h-.089l.004.025-.005.108-.018.1-.029.085-.038.075-.046.063-.055.05-.063.031-.067.009-.067-.009-.063-.031-.055-.05-.047-.063-.038-.075-.028-.086-.017-.099-.006-.108v-.025h-.084Z" fill="#fff"/><path fill-rule="evenodd" clip-rule="evenodd" d="M37.124 16.999v.287h.119v-.236h.12l.144.238h.095l-.143-.238h.034l.033-.01.029-.009.025-.018.008-.014h-.201l-.026.004h-.118V17l-.119-.001Z" fill="#fff"/><path d="m36.861 17.015.008-.084.023-.077.041-.069.05-.061.059-.048.07-.035.075-.025.081-.007.082.008.073.024.071.035.06.048.049.061.04.069.026.077.007.084-.009.084-.024.077-.04.069-.048.059-.06.047-.072.038-.073.024-.082.008-.082-.008-.075-.023-.069-.038-.06-.05-.05-.057-.04-.069-.023-.077-.008-.084m.407.335.067-.006.063-.021.054-.032.047-.04.038-.049.03-.055.016-.062.006-.07-.006-.069-.017-.064-.029-.057-.038-.05-.047-.039-.054-.029-.063-.02-.067-.006-.067.005-.063.021-.056.03-.045.04-.038.05-.029.055-.017.064-.006.069.006.069.017.064.029.055.038.048.045.04.056.032.063.02.067.006v.001Zm0-.349.025-.006.02-.003.018-.006.015-.005.012-.009.006-.01.006-.012v-.021l-.003-.015-.007-.012-.009-.005-.008-.006-.014-.002-.016-.003h-.117v.115h.072Zm-.072.173h-.073v-.349h.159l.035.003.033.006.022.009.021.01.013.018.012.018.005.02.004.02-.004.025-.005.021-.008.017-.012.014-.014.013-.017.005-.02.006h-.02l.085.144h-.057l-.088-.144h-.07v.144Z" stroke="#fff" stroke-width=".216"/><path fill-rule="evenodd" clip-rule="evenodd" d="M31.823 17.392h.816l.292-1.637.013-.064.015-.064.019-.063L33 15.5l.029-.063.034-.062.038-.057.046-.054.05-.05.06-.046.066-.043.076-.035.083-.028.092-.023.101-.017.114-.007h.072l.13-.74-.08.007-.08.008-.071.014-.07.021-.063.023-.06.028-.058.032-.055.035-.053.04-.05.041-.044.046-.047.045-.044.05-.042.054-.044.051-.04.059.086-.521h-.813l-.54 3.083Z" fill="#fff"/><path d="M31.823 17.392h.816l.292-1.637.013-.064.015-.064.019-.063L33 15.5l.029-.063.034-.062.038-.057.046-.054.05-.05.06-.046.066-.043.076-.035.083-.028.092-.023.101-.017.114-.007h.072l.13-.74-.08.007-.08.008-.071.014-.07.021-.063.023-.06.028-.058.032-.055.035-.053.04-.05.041-.044.046-.047.045-.044.05-.042.054-.044.051-.04.059.086-.521h-.813l-.54 3.083" stroke="#fff" stroke-width=".216"/><path fill-rule="evenodd" clip-rule="evenodd" d="M24.165 17.392h.83l.278-1.637.012-.064.013-.061.015-.06.02-.059.023-.056.03-.055.033-.053.042-.048.046-.044.053-.043.063-.034.07-.032.08-.026.088-.022.1-.016.114-.007h.008l.01.003.015.002h.015l.015.002.011.004.008.003h.003l.003-.013.01-.034.01-.05.016-.065.02-.075.019-.08.028-.08.025-.082.024-.054.029-.055.028-.055.029-.048.025-.043.02-.035.014-.02.006-.009h-.002l-.011-.004-.015-.002-.02-.002h-.021l-.023-.003-.02-.004h-.02l-.088.007-.083.008-.075.014-.069.018-.068.023-.06.029-.055.029-.05.034-.05.037-.046.044-.043.043-.044.048-.043.05-.042.055-.043.056-.043.059.104-.521h-.83l-.541 3.083Z" fill="#fff"/><path d="M24.165 17.392h.83l.278-1.637.012-.064.013-.061.015-.06.02-.059.023-.056.03-.055.033-.053.042-.048.046-.044.053-.043.063-.034.07-.032.08-.026.088-.022.1-.016.114-.007h.008l.01.003.015.002h.015l.015.002.011.004.008.003h.003l.003-.013.01-.034.01-.05.016-.065.02-.075.019-.08.028-.08.025-.082.024-.054.029-.055.028-.055.029-.048.025-.043.02-.035.014-.02.006-.009h-.002l-.011-.004-.015-.002-.02-.002h-.021l-.023-.003-.02-.004h-.02l-.088.007-.083.008-.075.014-.069.018-.068.023-.06.029-.055.029-.05.034-.05.037-.046.044-.043.043-.044.048-.043.05-.042.055-.043.056-.043.059.104-.521h-.83l-.541 3.083" stroke="#fff" stroke-width=".216"/><path fill-rule="evenodd" clip-rule="evenodd" d="M36.87 20.629v-.02l.022-.123.042-.108.049-.096.06-.075.069-.058.075-.033.081-.015.082.015.074.033.07.057.061.075.048.097.04.108.026.123v.02h-.086l-.017-.1-.029-.09-.038-.081-.046-.067-.055-.052-.063-.033-.067-.01-.067.01-.063.033-.055.052-.047.067-.037.08-.029.092-.016.099h-.085Z" fill="#FBB231"/><path fill-rule="evenodd" clip-rule="evenodd" d="M37.124 20.488v-.167h.321l.053.009.038.009.034.019.023.024.019.03.01.032.005.042h-.096v-.024l-.005-.023-.009-.019-.016-.009-.013-.01-.025-.005-.024-.004h-.196v.094l-.119.002Zm-.264.037.014-.104h.14v.004l-.01.1h-.144Z" fill="#FBB231"/><path fill-rule="evenodd" clip-rule="evenodd" d="M37.124 20.525v-.104h.119v.095h.12l.043-.008.032-.005.03-.01.026-.01.018-.013.01-.016.009-.023v-.01h.096l-.005.033-.01.029-.013.024-.019.018h-.456Z" fill="#FBB231"/><path fill-rule="evenodd" clip-rule="evenodd" d="m37.593 20.525-.01-.1v-.004h.139l.016.104h-.145Z" fill="#FBB231"/><path fill-rule="evenodd" clip-rule="evenodd" d="M36.86 20.485v.012l.01.134.022.125.04.109.05.096.06.079.07.054.075.037.081.013.081-.013.076-.037.07-.054.059-.079.05-.096.04-.11.023-.124.01-.132v-.014h-.088v.012l-.006.113-.017.1-.029.086-.038.078-.046.065-.055.05-.063.032-.067.009-.067-.009-.063-.032-.055-.05-.046-.065-.038-.078-.029-.087-.017-.1-.006-.11v-.014h-.087Z" fill="#FBB231"/><path fill-rule="evenodd" clip-rule="evenodd" d="M37.124 20.485v.275h.119v-.238h.12l.144.238h.095l-.143-.238h.034l.033-.008.029-.01.025-.019h-.456Z" fill="#FBB231"/><path fill-rule="evenodd" clip-rule="evenodd" d="M23.472 15.491h-1.058l.002-.002h-.002l.008-.04.011-.062.018-.056.02-.057.025-.053.027-.05.032-.045.035-.043.038-.04.036-.034.043-.033.043-.025.05-.024.05-.017.05-.011.05-.009.057-.003.05.005.05.01.046.012.046.016.044.024.043.025.038.03.034.034.029.04.029.043.02.05.022.054.01.057.006.063.004.07-.006.071Zm.783-.265-.023-.171-.04-.154-.058-.131-.073-.116-.088-.098-.095-.081-.103-.069-.113-.051-.116-.044-.119-.028-.117-.02-.119-.013-.113-.002-.234.012-.209.034-.188.052-.167.072-.145.087-.126.097-.114.11-.092.116-.08.12-.068.127-.05.124-.046.122-.031.122-.023.112-.018.106-.011.093-.014.237.008.212.032.193.048.169.071.154.083.132.099.118.114.097.12.084.13.073.136.055.142.042.145.035.144.02.144.015.143.002h.094l.09-.002h.078l.076-.004.066-.005.06-.006.059-.005.051-.009.05-.01.046-.011.047-.014.043-.014.043-.018.047-.017.047-.023.045-.023.116-.709-.085.05-.08.046-.084.035-.08.03-.079.026-.08.017-.08.015-.077.013-.079.005-.075.002h-.078l-.075-.002-.076-.006-.075-.008-.07-.01-.076-.011-.06-.012-.056-.02-.06-.024-.05-.033-.052-.035-.047-.043-.043-.043-.04-.049-.035-.049-.032-.055-.023-.051-.021-.055-.012-.055-.005-.055.003-.049.007-.037h1.875l.015-.175.044-.243.02-.219-.003-.196Z" fill="#fff"/></svg>