<svg width="48" height="30" fill="none" xmlns="http://www.w3.org/2000/svg"><path d="M46.737 0H1.263C.566 0 0 .56 0 1.25v27.5C0 29.44.566 30 1.263 30h45.474c.697 0 1.263-.56 1.263-1.25V1.25C48 .56 47.434 0 46.737 0Z" fill="#fff"/><path d="M11.866 10.969c-.452-.51-1.27-.728-2.314-.728H6.518a.437.437 0 0 0-.43.363l-1.263 7.925a.255.255 0 0 0 .149.274.261.261 0 0 0 .11.023h1.872l.47-2.951-.014.092a.436.436 0 0 1 .427-.362h.89c1.75 0 3.117-.703 3.518-2.735.012-.06.022-.119.031-.175.119-.751-.001-1.263-.412-1.725" fill="#003087"/><path d="M34.792 14.74c-.113.744-.688.744-1.244.744h-.316l.223-1.388a.172.172 0 0 1 .172-.146h.145c.379 0 .735 0 .92.213.11.127.142.316.1.577Zm-.24-1.94h-2.095a.292.292 0 0 0-.288.243l-.846 5.312a.172.172 0 0 0 .171.2h1.075a.204.204 0 0 0 .202-.17l.24-1.507a.292.292 0 0 1 .287-.243h.663c1.38 0 2.175-.66 2.384-1.969.093-.572.004-1.022-.268-1.337-.297-.346-.825-.529-1.526-.529Z" fill="#009CDE"/><path d="M19.857 14.74c-.116.744-.69.744-1.245.744h-.316l.222-1.388a.172.172 0 0 1 .172-.146h.145c.38 0 .735 0 .919.213.11.127.144.316.102.577h.001Zm-.242-1.94H17.52a.292.292 0 0 0-.288.243l-.846 5.312a.17.17 0 0 0 .099.184c.023.01.048.016.073.016h1a.292.292 0 0 0 .288-.244l.228-1.432a.287.287 0 0 1 .288-.244h.663c1.38 0 2.175-.66 2.383-1.969.094-.572.004-1.022-.268-1.337-.296-.346-.824-.529-1.525-.529Zm4.862 3.848c-.04.267-.176.511-.385.686a1.126 1.126 0 0 1-.747.261c-.29 0-.524-.092-.673-.269-.15-.173-.205-.42-.158-.696.038-.267.173-.511.38-.687.207-.176.471-.271.744-.268.284 0 .515.094.67.271.15.178.213.427.169.7v.002Zm1.397-1.932H24.87a.175.175 0 0 0-.172.147l-.044.277-.071-.1c-.216-.312-.701-.417-1.184-.417-1.107 0-2.055.83-2.238 1.995-.096.582.04 1.137.373 1.525.305.356.742.503 1.263.503.893 0 1.39-.566 1.39-.566l-.046.275a.17.17 0 0 0 .099.184c.023.01.047.016.073.016h.903a.292.292 0 0 0 .288-.244l.542-3.395a.172.172 0 0 0-.173-.2Z" fill="#003087"/><path d="M39.413 16.648c-.04.267-.176.511-.384.686a1.125 1.125 0 0 1-.748.261c-.29 0-.524-.092-.673-.269-.15-.174-.205-.421-.158-.696.038-.267.173-.512.38-.687.207-.176.471-.271.744-.268.284 0 .516.094.67.271.151.178.213.426.169.7v.002Zm1.397-1.932h-1.003a.176.176 0 0 0-.113.042.172.172 0 0 0-.059.105l-.044.277-.07-.1c-.218-.313-.702-.417-1.184-.417-1.108 0-2.054.83-2.239 1.995-.096.582.04 1.137.373 1.524.307.357.743.504 1.263.504.893 0 1.39-.566 1.39-.566l-.046.275a.171.171 0 0 0 .099.184c.023.01.048.016.073.016h.903a.287.287 0 0 0 .288-.244l.542-3.395a.172.172 0 0 0-.1-.184.177.177 0 0 0-.073-.016Z" fill="#009CDE"/><path d="M31.215 14.716h-1.01a.293.293 0 0 0-.24.127l-1.389 2.024-.59-1.946a.288.288 0 0 0-.279-.205h-.99a.176.176 0 0 0-.173.148.17.17 0 0 0 .008.081l1.109 3.223-1.044 1.457a.17.17 0 0 0 .052.248.176.176 0 0 0 .09.024h1.008a.292.292 0 0 0 .24-.124l3.35-4.785a.17.17 0 0 0-.052-.247.177.177 0 0 0-.09-.025Z" fill="#003087"/><path d="m41.993 12.946-.859 5.409a.17.17 0 0 0 .04.14.174.174 0 0 0 .132.06h.864a.292.292 0 0 0 .288-.244L43.304 13a.17.17 0 0 0-.099-.184.175.175 0 0 0-.073-.016h-.967a.175.175 0 0 0-.172.147Z" fill="#009CDE"/><path d="M11.866 10.969c-.452-.51-1.27-.728-2.314-.728H6.518a.437.437 0 0 0-.43.363l-1.263 7.925a.255.255 0 0 0 .149.274.261.261 0 0 0 .11.023h1.872l.47-2.951-.014.092a.436.436 0 0 1 .427-.362h.89c1.75 0 3.117-.703 3.518-2.735.012-.06.022-.119.031-.175.119-.751-.001-1.263-.412-1.725" fill="#003087"/><path d="M7.933 12.704a.381.381 0 0 1 .374-.316h2.38c.281 0 .543.017.783.056.132.02.262.05.39.085.144.041.285.096.418.165.12-.75 0-1.263-.41-1.725-.453-.509-1.27-.728-2.315-.728H6.518a.437.437 0 0 0-.43.363l-1.263 7.925a.255.255 0 0 0 .149.274.261.261 0 0 0 .11.023h1.872l.47-2.952.506-3.17Z" fill="#003087"/><path d="M12.278 12.694c-.01.058-.02.117-.032.175-.4 2.032-1.768 2.736-3.518 2.736H7.84a.435.435 0 0 0-.427.362l-.456 2.858-.13.813a.223.223 0 0 0 .13.239c.03.014.062.02.095.02H8.63a.38.38 0 0 0 .375-.317l.015-.08.298-1.865.02-.103a.374.374 0 0 1 .374-.317h.237c1.528 0 2.727-.615 3.077-2.393.145-.742.07-1.362-.316-1.798a1.505 1.505 0 0 0-.434-.33" fill="#009CDE"/><path d="M11.858 12.529a2.775 2.775 0 0 0-.389-.085 4.963 4.963 0 0 0-.784-.057H8.306a.381.381 0 0 0-.375.317l-.505 3.171-.014.092a.426.426 0 0 1 .427-.362h.89c1.748 0 3.117-.703 3.517-2.735.013-.06.022-.119.03-.175a2.174 2.174 0 0 0-.418-.166Z" fill="#012169"/></svg>