<svg width="48" height="30" fill="none" xmlns="http://www.w3.org/2000/svg"><path d="M46.737 0H1.263C.566 0 0 .56 0 1.25v27.5C0 29.44.566 30 1.263 30h45.474c.697 0 1.263-.56 1.263-1.25V1.25C48 .56 47.434 0 46.737 0Z" fill="#3957A7"/><path fill-rule="evenodd" clip-rule="evenodd" d="M22.023 19.806h-2.337l1.459-8.969h2.338l-1.46 8.97Zm-4.304-8.969-2.23 6.17-.263-1.328-.786-4.034s-.096-.807-1.109-.807H9.646l-.042.152s1.126.234 2.445 1.025l2.03 7.791h2.436l3.72-8.969H17.72Zm15.816 5.797 1.228-3.357.692 3.357h-1.92Zm2.573 3.172h2.147l-1.873-8.969h-1.88c-.867 0-1.078.67-1.078.67l-3.486 8.3h2.436l.487-1.332h2.972l.275 1.331Zm-5.988-6.812.333-1.925s-1.03-.392-2.102-.392c-1.16 0-3.915.507-3.915 2.97 0 2.317 3.233 2.345 3.233 3.562 0 1.216-2.9 1-3.858.232l-.347 2.013s1.044.507 2.639.507c1.595 0 4.002-.825 4.002-3.071 0-2.331-3.262-2.55-3.262-3.563 0-1.013 2.278-.883 3.277-.333Z" fill="#fff"/><path fill-rule="evenodd" clip-rule="evenodd" d="m15.226 15.679-.786-4.034s-.096-.807-1.109-.807H9.645l-.041.152s1.77.366 3.468 1.739c1.625 1.312 2.154 2.95 2.154 2.95Z" fill="#F9A533"/></svg>