<?xml version="1.0" standalone="no"?>
<!DOCTYPE svg PUBLIC "-//W3C//DTD SVG 20010904//EN"
 "http://www.w3.org/TR/2001/REC-SVG-20010904/DTD/svg10.dtd">
<svg version="1.0" xmlns="http://www.w3.org/2000/svg"
 width="800.000000pt" height="800.000000pt" viewBox="0 0 800.000000 800.000000"
 preserveAspectRatio="xMidYMid meet">
<metadata>
Created by potrace 1.14, written by Peter Selinger 2001-2017
</metadata>
<g transform="translate(0.000000,800.000000) scale(0.100000,-0.100000)"
fill="#000000" stroke="none">
<path d="M3907 7964 c-1 -1 -67 -4 -146 -8 -79 -4 -176 -11 -215 -16 -39 -6
-84 -12 -101 -14 -37 -6 -101 -16 -135 -22 -14 -2 -41 -7 -60 -10 -19 -3 -64
-12 -100 -20 -36 -9 -76 -18 -90 -20 -14 -3 -65 -17 -115 -30 -358 -101 -695
-248 -1005 -439 -217 -134 -421 -289 -606 -461 -88 -81 -137 -130 -254 -253
-55 -58 -207 -245 -254 -311 -205 -292 -315 -484 -448 -780 -24 -54 -82 -200
-83 -210 0 -3 -3 -9 -6 -15 -18 -30 -107 -328 -138 -465 -18 -77 -53 -276 -66
-375 -3 -22 -7 -53 -9 -70 -26 -188 -27 -769 -1 -902 2 -11 6 -44 10 -74 3
-30 11 -81 16 -114 6 -33 13 -73 16 -90 3 -16 6 -37 7 -45 7 -43 54 -244 66
-285 5 -16 21 -70 36 -120 14 -49 29 -99 34 -110 4 -11 20 -54 35 -95 15 -41
34 -91 41 -110 7 -19 27 -66 44 -105 17 -38 31 -71 31 -73 -2 -5 149 -291 191
-362 68 -115 219 -343 239 -360 3 -3 18 -23 34 -45 16 -22 34 -44 39 -50 6 -5
29 -32 51 -60 95 -120 236 -267 402 -421 49 -46 50 -47 178 -150 477 -383
1043 -651 1640 -775 50 -10 108 -21 130 -24 22 -3 47 -8 55 -10 8 -2 38 -7 65
-10 28 -3 64 -8 80 -10 145 -24 475 -34 705 -21 122 7 159 10 250 22 25 3 59
8 75 9 75 9 281 48 345 65 25 7 53 14 62 16 10 2 26 6 37 8 155 35 480 153
654 238 54 26 100 48 102 48 10 0 216 117 315 179 95 59 275 182 325 223 180
146 290 244 403 362 37 38 78 80 92 95 44 45 230 267 260 311 8 12 33 47 56
78 196 274 378 622 500 960 28 76 94 290 109 352 10 39 44 198 49 225 16 85
26 144 31 185 4 25 8 61 11 80 3 19 7 46 9 60 19 113 27 584 13 760 -18 226
-74 555 -124 730 -109 383 -256 730 -433 1020 -87 142 -248 369 -342 484 -112
135 -260 289 -409 426 -61 56 -273 225 -340 271 -35 24 -73 52 -84 62 -11 9
-25 17 -32 17 -7 0 -14 4 -16 9 -5 14 -249 157 -385 225 -296 149 -601 259
-928 333 -67 15 -323 55 -438 68 -93 10 -472 26 -480 19z"/>
</g>
</svg>
